<?xml version="1.0" encoding="utf-8"?>
<!-- Generator: Adobe Illustrator 27.0.0, SVG Export Plug-In . SVG Version: 6.00 Build 0)  -->
<svg version="1.1" xmlns="http://www.w3.org/2000/svg" xmlns:xlink="http://www.w3.org/1999/xlink" x="0px" y="0px"
	 viewBox="0 0 130.37 194.58" style="enable-background:new 0 0 130.37 194.58;" xml:space="preserve">
<style type="text/css">
	.st0{fill:none;stroke:#606060;stroke-width:0.25;stroke-miterlimit:10;}
	.st1{fill:#00AEEF;}
	.st2{fill:#FFFFFF;}
	.st3{fill:none;stroke:#FFFFFF;stroke-width:0.5;stroke-miterlimit:10;}
	.st4{fill:#FFF200;}
	.st5{fill:none;}
	.st6{fill:#8A8B8E;}
	.st7{fill:#737373;}
	.st8{fill:#ED1B23;}
</style>
<g id="기본">
	<rect x="-162.19" y="-93.52" class="st0" width="815.54" height="608.09"/>
	<rect x="-175.37" y="-169.04" width="841.89" height="46"/>
	<g>
		<g>
			<path class="st1" d="M-157.71-109.37c1.95,0,3.53,1.62,3.53,3.55c0,1.96-1.59,3.55-3.53,3.55c-1.94,0-3.53-1.59-3.53-3.55
				C-161.24-107.75-159.65-109.37-157.71-109.37z"/>
			<path class="st1" d="M-151.4-108.72c-0.18,0-0.2,0.04-0.2,0.19v4.04c0,0.19,0.02,0.21,0.2,0.21h0.6c1.46,0,2.56-0.14,3.52-0.36
				c0.22-0.05,0.32,0.12,0.32,0.34c0,0.14-0.07,0.23-0.18,0.26c-0.88,0.24-2.6,0.38-4.13,0.38c-0.77,0-1.05-0.06-1.05-0.7v-4.35
				c0-0.47,0.13-0.63,0.65-0.63h3.45c0.17,0,0.26,0.12,0.26,0.32c0,0.19-0.09,0.3-0.26,0.3H-151.4z M-146.16-109.88
				c0-0.17,0.13-0.27,0.35-0.27c0.23,0,0.35,0.1,0.35,0.27v8.51c0,0.19-0.12,0.29-0.35,0.29c-0.23,0-0.35-0.1-0.35-0.29V-109.88z"/>
			<path class="st1" d="M-143.44-103.52c-0.19,0.11-0.35,0.07-0.46-0.1c-0.1-0.15-0.09-0.34,0.09-0.46
				c1.09-0.66,2.07-1.63,2.07-3.54v-1.06h-1.91c-0.18,0-0.26-0.13-0.26-0.32c0-0.18,0.08-0.3,0.26-0.3h4.58
				c0.18,0,0.27,0.12,0.27,0.3c0,0.19-0.08,0.32-0.27,0.32h-1.95v1.06c0,1.91,1.12,2.85,2.19,3.4c0.15,0.08,0.19,0.27,0.1,0.44
				c-0.1,0.19-0.25,0.23-0.46,0.14c-0.92-0.45-1.87-1.37-2.19-2.42C-141.66-104.99-142.43-104.1-143.44-103.52z M-136.97-109.89
				v3.09h1.4c0.18,0,0.26,0.11,0.26,0.31c0,0.2-0.08,0.31-0.26,0.31h-1.4v4.81c0,0.19-0.13,0.29-0.36,0.29
				c-0.22,0-0.35-0.1-0.35-0.29v-8.52c0-0.17,0.13-0.27,0.35-0.27C-137.09-110.16-136.97-110.06-136.97-109.89z"/>
			<path class="st1" d="M-132.25-109.61c1.42,0,2.36,0.91,2.36,2.18c0,1.27-0.94,2.16-2.36,2.16c-1.44,0-2.36-0.89-2.36-2.16
				C-134.61-108.7-133.69-109.61-132.25-109.61z M-132.25-105.87c1.04,0,1.67-0.66,1.67-1.57c0-0.91-0.63-1.57-1.67-1.57
				c-1.05,0-1.67,0.66-1.67,1.57C-133.92-106.53-133.3-105.87-132.25-105.87z M-133.22-103.98c0-0.17,0.14-0.28,0.36-0.28
				c0.22,0,0.36,0.11,0.36,0.28v2.08c0,0.14,0.03,0.16,0.17,0.16h4.88c0.17,0,0.26,0.11,0.26,0.31c0,0.19-0.09,0.31-0.26,0.31h-4.74
				c-0.65,0-1.03,0-1.03-0.6V-103.98z M-128.21-109.89c0-0.17,0.14-0.26,0.35-0.26c0.22,0,0.35,0.09,0.35,0.26v6.07
				c0,0.19-0.12,0.29-0.35,0.29c-0.23,0-0.35-0.1-0.35-0.29V-109.89z"/>
			<path class="st1" d="M-120.62-103.5c-1.56,0-2.31-1.14-2.31-3.05c0-1.91,0.75-3.06,2.31-3.06c1.55,0,2.31,1.15,2.31,3.06
				C-118.31-104.63-119.07-103.5-120.62-103.5z M-120.62-108.98c-1.03,0-1.6,0.79-1.6,2.44c0,1.64,0.57,2.43,1.6,2.43
				c1.03,0,1.61-0.79,1.61-2.43C-119.01-108.19-119.59-108.98-120.62-108.98z M-116.55-109.88c0-0.17,0.13-0.27,0.35-0.27
				c0.23,0,0.35,0.1,0.35,0.27v8.51c0,0.19-0.12,0.29-0.35,0.29s-0.35-0.1-0.35-0.29V-109.88z"/>
			<path class="st1" d="M-113.78-108.74c0-0.42,0.16-0.6,0.58-0.6h3.21c0.41,0,0.58,0.19,0.58,0.62v4.28c0,0.45-0.23,0.64-0.66,0.64
				h-3.13c-0.41,0-0.58-0.16-0.58-0.61V-108.74z M-112.88-108.74c-0.16,0-0.19,0.02-0.19,0.18v3.98c0,0.16,0.03,0.18,0.19,0.18h2.57
				c0.16,0,0.18-0.02,0.18-0.18v-3.98c0-0.16-0.03-0.18-0.18-0.18H-112.88z M-107.58-109.88c0-0.17,0.13-0.27,0.35-0.27
				c0.23,0,0.35,0.1,0.35,0.27v8.51c0,0.19-0.12,0.29-0.35,0.29s-0.35-0.1-0.35-0.29V-109.88z"/>
			<path class="st1" d="M-104.55-103.5c-0.19,0.11-0.35,0.06-0.46-0.12c-0.1-0.17-0.07-0.34,0.1-0.44c1.13-0.68,2.09-1.62,2.09-3.52
				v-1.1h-1.92c-0.17,0-0.25-0.13-0.25-0.32c0-0.18,0.09-0.3,0.25-0.3h4.6c0.17,0,0.26,0.12,0.26,0.3c0,0.19-0.09,0.32-0.26,0.32
				h-1.96v1.11c0,1.88,1.1,2.83,2.16,3.37c0.16,0.08,0.19,0.27,0.1,0.44c-0.11,0.19-0.25,0.24-0.45,0.14
				c-0.93-0.48-1.82-1.29-2.15-2.37C-102.75-104.89-103.55-104.05-104.55-103.5z M-97.9-109.89v8.52c0,0.19-0.13,0.29-0.36,0.29
				c-0.22,0-0.34-0.1-0.34-0.29v-8.52c0-0.17,0.12-0.27,0.34-0.27C-98.03-110.16-97.9-110.06-97.9-109.89z"/>
			<path class="st1" d="M-93.47-105.37v-0.23c0-1.89,0.75-3.38,1.79-4.52c0.28-0.27,0.66,0.04,0.46,0.3
				c-0.86,1.1-1.43,2.59-1.43,4.2v0.29c0,1.65,0.62,3.09,1.44,4.16c0.19,0.25-0.2,0.56-0.45,0.31
				C-92.63-101.9-93.47-103.46-93.47-105.37z"/>
			<path class="st1" d="M-87.22-109.17c0,1.8,1.11,2.48,2.11,2.85c0.12,0.05,0.17,0.15,0.17,0.27c0,0.18-0.12,0.38-0.35,0.34
				c-0.93-0.2-1.96-1.02-2.28-1.99c-0.24,0.9-0.97,1.55-1.83,1.98c-0.15,0.07-0.35,0.17-0.48,0.17c-0.17,0-0.3-0.17-0.3-0.35
				c0-0.11,0.05-0.21,0.17-0.26c1.09-0.48,2.07-1.23,2.07-2.98v-0.57c0-0.17,0.15-0.26,0.36-0.26c0.25,0,0.36,0.11,0.36,0.26
				V-109.17z M-88.48-104.91h4.97c0.44,0,0.56,0.18,0.56,0.56v1.13c0,0.41-0.18,0.55-0.58,0.55h-4.26c-0.16,0-0.18,0.02-0.18,0.16
				v0.82c0,0.15,0.02,0.18,0.17,0.18h4.97c0.17,0,0.26,0.11,0.26,0.3c0,0.19-0.09,0.3-0.26,0.3h-5.29c-0.43,0-0.58-0.17-0.58-0.58
				v-1.21c0-0.37,0.13-0.53,0.56-0.53h4.29c0.15,0,0.17-0.02,0.17-0.18v-0.73c0-0.14-0.02-0.17-0.17-0.17h-4.63
				c-0.16,0-0.25-0.1-0.25-0.3C-88.73-104.8-88.64-104.91-88.48-104.91z M-82.95-109.89v4.18c0,0.19-0.12,0.28-0.35,0.28
				s-0.35-0.09-0.35-0.28v-4.18c0-0.17,0.14-0.26,0.35-0.26C-83.08-110.15-82.95-110.06-82.95-109.89z"/>
			<path class="st1" d="M-81.33-103.79c1.08-0.73,1.74-1.73,1.74-3.53v-1.32h-1.5c-0.18,0-0.27-0.12-0.27-0.32
				c0-0.18,0.09-0.3,0.27-0.3h3.69c0.16,0,0.26,0.12,0.26,0.3c0,0.2-0.09,0.32-0.26,0.32h-1.5v1.31c0,1.77,0.81,2.85,1.8,3.42
				c0.14,0.1,0.14,0.32,0.03,0.46c-0.1,0.15-0.29,0.18-0.44,0.08c-0.77-0.46-1.46-1.24-1.73-2.23c-0.21,0.98-0.79,1.78-1.69,2.35
				c-0.18,0.12-0.35,0.04-0.45-0.08C-81.46-103.46-81.46-103.67-81.33-103.79z M-76.22-109.73c0-0.15,0.12-0.25,0.34-0.25
				c0.21,0,0.34,0.1,0.34,0.25v8.14c0,0.18-0.12,0.28-0.34,0.28c-0.22,0-0.34-0.1-0.34-0.28v-4.72h-1.41
				c-0.17,0-0.27-0.11-0.27-0.32c0-0.21,0.1-0.32,0.27-0.32h1.41V-109.73z M-74.36-109.89c0-0.17,0.13-0.26,0.34-0.26
				c0.23,0,0.34,0.09,0.34,0.26v8.53c0,0.18-0.11,0.28-0.34,0.28c-0.22,0-0.34-0.1-0.34-0.28V-109.89z"/>
			<path class="st1" d="M-66.94-109.52v1.54c0,1.96,0.99,3.03,2.18,3.69c0.15,0.09,0.18,0.27,0.09,0.44
				c-0.1,0.17-0.27,0.23-0.46,0.12c-0.94-0.49-1.87-1.45-2.16-2.55c-0.24,1.11-1.03,2.12-2.1,2.69c-0.18,0.1-0.36,0.04-0.45-0.12
				c-0.1-0.16-0.08-0.33,0.08-0.44c1.27-0.76,2.09-1.82,2.09-3.81v-1.56c0-0.17,0.13-0.27,0.36-0.27
				C-67.06-109.79-66.94-109.69-66.94-109.52z M-62.79-109.89v3.07h1.4c0.18,0,0.26,0.11,0.26,0.31c0,0.2-0.08,0.31-0.26,0.31h-1.4
				v4.83c0,0.19-0.13,0.29-0.36,0.29c-0.22,0-0.35-0.1-0.35-0.29v-8.52c0-0.17,0.13-0.27,0.35-0.27
				C-62.92-110.16-62.79-110.06-62.79-109.89z"/>
			<path class="st1" d="M-58.11-103.5c-1.56,0-2.31-1.14-2.31-3.05c0-1.91,0.75-3.06,2.31-3.06c1.55,0,2.31,1.15,2.31,3.06
				C-55.81-104.63-56.57-103.5-58.11-103.5z M-58.11-108.98c-1.03,0-1.6,0.79-1.6,2.44c0,1.64,0.57,2.43,1.6,2.43
				c1.03,0,1.61-0.79,1.61-2.43C-56.51-108.19-57.09-108.98-58.11-108.98z M-54.04-109.88c0-0.17,0.13-0.27,0.35-0.27
				c0.23,0,0.35,0.1,0.35,0.27v8.51c0,0.19-0.12,0.29-0.35,0.29s-0.35-0.1-0.35-0.29V-109.88z"/>
			<path class="st1" d="M-51.64-102.5c-0.16,0-0.25-0.11-0.25-0.32c0-0.19,0.09-0.3,0.25-0.3h7.94c0.17,0,0.26,0.11,0.26,0.3
				c0,0.21-0.09,0.32-0.26,0.32H-51.64z M-47.27-108.76v0.45c0,1.61,1.57,2.49,2.91,2.78c0.13,0.03,0.19,0.15,0.19,0.28
				c0,0.21-0.15,0.35-0.33,0.35c-0.03,0-0.07,0-0.1-0.01c-1.3-0.28-2.58-1.03-3.06-2.2c-0.46,1.2-1.76,1.93-3.06,2.22
				c-0.04,0.01-0.07,0.01-0.1,0.01c-0.18,0-0.33-0.15-0.33-0.37c0-0.13,0.07-0.24,0.19-0.27c1.41-0.3,2.9-1.18,2.9-2.78v-0.46h-2.69
				c-0.18,0-0.26-0.13-0.26-0.31c0-0.19,0.09-0.31,0.26-0.31h6.18c0.17,0,0.26,0.12,0.26,0.31c0,0.18-0.09,0.31-0.26,0.31H-47.27z"
				/>
			<path class="st1" d="M-42.69-103.27c-0.16,0-0.27-0.1-0.27-0.3c0-0.21,0.11-0.32,0.27-0.32h2.16v-1.66
				c-1.24-0.12-2.01-0.92-2.01-2.05c0-1.23,0.91-2.08,2.34-2.08s2.35,0.85,2.35,2.08c0,1.13-0.76,1.92-1.99,2.05v1.66
				c1.07-0.01,1.9-0.11,2.48-0.25c0.15-0.04,0.29,0.04,0.32,0.22c0.03,0.19-0.03,0.32-0.18,0.36c-0.65,0.16-1.68,0.29-2.86,0.29
				H-42.69z M-40.19-106.11c1.04,0,1.64-0.63,1.64-1.48s-0.6-1.48-1.64-1.48c-1.05,0-1.64,0.63-1.64,1.48
				S-41.24-106.11-40.19-106.11z M-36.52-109.89c0-0.17,0.13-0.27,0.35-0.27c0.23,0,0.35,0.1,0.35,0.27v3.27h1.34
				c0.18,0,0.26,0.11,0.26,0.3c0,0.21-0.08,0.31-0.26,0.31h-1.34v4.64c0,0.19-0.12,0.29-0.35,0.29c-0.22,0-0.35-0.1-0.35-0.29
				V-109.89z"/>
			<path class="st1" d="M-29.96-108.7c-0.18,0-0.2,0.04-0.2,0.2v3.99c0,0.18,0.03,0.2,0.2,0.2h0.55c1.32,0,2.45-0.1,3.42-0.34
				c0.19-0.04,0.33,0.08,0.33,0.31c0,0.16-0.07,0.26-0.19,0.28c-0.95,0.26-2.25,0.38-3.61,0.38h-0.44c-0.59,0-0.98-0.07-0.98-0.71
				v-4.3c0-0.47,0.15-0.63,0.66-0.63h3.38c0.18,0,0.27,0.12,0.27,0.31c0,0.2-0.09,0.31-0.27,0.31H-29.96z M-24.93-109.88
				c0-0.17,0.13-0.27,0.35-0.27c0.23,0,0.35,0.1,0.35,0.27v3.07h1.41c0.17,0,0.26,0.11,0.26,0.31c0,0.2-0.09,0.31-0.26,0.31h-1.41
				v4.82c0,0.19-0.12,0.29-0.35,0.29c-0.23,0-0.35-0.1-0.35-0.29V-109.88z"/>
			<path class="st1" d="M-22.04-105.2c-0.16,0-0.24-0.1-0.24-0.27c0-0.18,0.08-0.29,0.24-0.29h7.96c0.16,0,0.25,0.1,0.25,0.28
				c0,0.18-0.09,0.28-0.25,0.28H-22.04z M-14.99-101.46c0.17,0,0.24,0.1,0.24,0.28c0,0.18-0.07,0.27-0.24,0.27h-5.08
				c-0.66,0-0.97,0-0.97-0.52v-1.02c0-0.35,0.1-0.5,0.54-0.5h4.47c0.16,0,0.18-0.02,0.18-0.15v-0.57c0-0.14-0.02-0.15-0.18-0.15
				h-4.78c-0.17,0-0.26-0.1-0.26-0.28c0-0.17,0.09-0.28,0.26-0.28h4.73c0.66,0,0.95,0.01,0.95,0.52v0.93c0,0.53-0.41,0.49-0.95,0.49
				h-4.05c-0.17,0-0.19,0.01-0.19,0.15v0.68c0,0.13,0.02,0.15,0.18,0.15H-14.99z M-15.09-107.07c0.18,0,0.25,0.09,0.25,0.27
				c0,0.18-0.07,0.27-0.25,0.27h-4.93c-0.61,0-0.95,0-0.95-0.53v-0.93c0-0.35,0.11-0.49,0.54-0.49h4.36c0.15,0,0.18-0.02,0.18-0.15
				v-0.57c0-0.13-0.02-0.15-0.18-0.15h-4.67c-0.17,0-0.26-0.1-0.26-0.28c0-0.18,0.09-0.28,0.26-0.28h4.63
				c0.68,0,0.94,0.01,0.94,0.52v0.93c0,0.48-0.39,0.5-0.93,0.5h-3.96c-0.16,0-0.19,0.02-0.19,0.15v0.58c0,0.14,0.03,0.16,0.18,0.16
				H-15.09z"/>
			<path class="st1" d="M-10.36-104.93h7.94c0.16,0,0.25,0.12,0.25,0.31c0,0.2-0.09,0.31-0.25,0.31h-3.61v3.14
				c0,0.2-0.14,0.3-0.36,0.3c-0.23,0-0.37-0.1-0.37-0.3v-3.14h-3.6c-0.16,0-0.26-0.11-0.26-0.31
				C-10.62-104.81-10.52-104.93-10.36-104.93z M-6.02-109.87v0.45c0,1.58,1.58,2.45,2.93,2.75c0.17,0.04,0.23,0.22,0.17,0.41
				c-0.07,0.17-0.21,0.25-0.41,0.21c-1.27-0.27-2.55-0.97-3.06-2.18c-0.46,1.23-1.79,1.91-3.05,2.19c-0.2,0.04-0.33-0.04-0.4-0.21
				c-0.07-0.19-0.01-0.38,0.16-0.41c1.4-0.31,2.92-1.18,2.92-2.75v-0.46c0-0.17,0.14-0.26,0.37-0.26
				C-6.16-110.13-6.02-110.04-6.02-109.87z"/>
			<path class="st1" d="M3.8-109.74c1.4,0,2.32,0.87,2.32,2.1c0,1.24-0.92,2.1-2.32,2.1c-1.41,0-2.32-0.86-2.32-2.1
				C1.49-108.87,2.4-109.74,3.8-109.74z M7-104.38c0-0.16,0.13-0.26,0.35-0.26s0.35,0.1,0.35,0.26v0.52c0,1.13,0.72,1.9,1.56,2.25
				c0.13,0.07,0.14,0.27,0.06,0.41c-0.1,0.18-0.27,0.21-0.44,0.15c-0.69-0.29-1.32-0.91-1.55-1.62c-0.23,0.69-0.74,1.21-1.31,1.55
				c-0.26,0.14-0.38,0.14-0.61,0.01c-0.58-0.33-1.09-0.85-1.32-1.53c-0.24,0.74-0.82,1.33-1.54,1.64c-0.15,0.06-0.34,0.05-0.44-0.13
				c-0.09-0.16-0.06-0.35,0.08-0.42c0.88-0.42,1.53-1.11,1.53-2.26v-0.54c0-0.16,0.13-0.25,0.34-0.25c0.22,0,0.35,0.09,0.35,0.25
				v0.51c0,1.07,0.71,1.87,1.29,2.14c0.59-0.31,1.29-1.1,1.3-2.16V-104.38z M3.8-106.13c1.02,0,1.62-0.64,1.62-1.51
				c0-0.87-0.6-1.51-1.62-1.51c-1.02,0-1.62,0.64-1.62,1.51C2.19-106.77,2.79-106.13,3.8-106.13z M8.56-109.89v4.49
				c0,0.2-0.12,0.29-0.35,0.29s-0.35-0.09-0.35-0.29v-4.49c0-0.17,0.14-0.26,0.35-0.26C8.43-110.15,8.56-110.06,8.56-109.89z"/>
			<path class="st1" d="M10.27-105.79h7.95c0.17,0,0.25,0.13,0.25,0.31c0,0.18-0.08,0.3-0.25,0.3h-7.95c-0.16,0-0.25-0.12-0.25-0.3
				C10.02-105.66,10.11-105.79,10.27-105.79z M14.62-109.81v0.3c0,1.34,1.51,2.08,2.85,2.27c0.16,0.03,0.25,0.22,0.18,0.41
				c-0.05,0.17-0.18,0.23-0.37,0.21c-1.31-0.2-2.56-0.82-3.02-1.87c-0.45,1.05-1.7,1.67-3,1.87c-0.19,0.02-0.34-0.03-0.4-0.2
				c-0.06-0.18,0.02-0.38,0.19-0.41c1.4-0.2,2.83-0.94,2.83-2.28v-0.3c0-0.17,0.13-0.27,0.37-0.27
				C14.48-110.08,14.62-109.98,14.62-109.81z M12.01-104.21v0.99h4.5v-0.99c0-0.16,0.14-0.26,0.35-0.26c0.22,0,0.35,0.1,0.35,0.26
				v2.7c0,0.43-0.19,0.58-0.64,0.58h-4.64c-0.46,0-0.62-0.16-0.62-0.59v-2.69c0-0.16,0.13-0.26,0.35-0.26
				C11.87-104.46,12.01-104.37,12.01-104.21z M12.01-102.66v0.97c0,0.16,0.03,0.18,0.18,0.18h4.14c0.15,0,0.18-0.01,0.18-0.18v-0.97
				H12.01z"/>
			<path class="st1" d="M20.36-104.52c0,0.17,0.02,0.19,0.19,0.2h0.57c1.43,0,2.6-0.14,3.56-0.38c0.21-0.04,0.32,0.12,0.32,0.33
				c0,0.14-0.08,0.24-0.19,0.27c-1.01,0.29-2.38,0.4-4.07,0.4c-0.84,0-1.1-0.02-1.1-0.71v-4.78c0-0.17,0.14-0.27,0.36-0.27
				c0.22,0,0.36,0.1,0.36,0.27V-104.52z M25.81-109.88c0-0.17,0.13-0.27,0.35-0.27c0.23,0,0.35,0.1,0.35,0.27v8.51
				c0,0.19-0.12,0.29-0.35,0.29c-0.23,0-0.35-0.1-0.35-0.29V-109.88z"/>
			<path class="st1" d="M29.25-108.7c-0.18,0-0.2,0.04-0.2,0.2v3.99c0,0.18,0.03,0.2,0.2,0.2h0.55c1.32,0,2.45-0.1,3.42-0.34
				c0.19-0.04,0.33,0.08,0.33,0.31c0,0.16-0.07,0.26-0.19,0.28c-0.95,0.26-2.25,0.38-3.61,0.38h-0.44c-0.59,0-0.98-0.07-0.98-0.71
				v-4.3c0-0.47,0.15-0.63,0.66-0.63h3.38c0.18,0,0.27,0.12,0.27,0.31c0,0.2-0.09,0.31-0.27,0.31H29.25z M34.29-109.88
				c0-0.17,0.13-0.27,0.35-0.27c0.23,0,0.35,0.1,0.35,0.27v3.07h1.41c0.17,0,0.26,0.11,0.26,0.31c0,0.2-0.09,0.31-0.26,0.31h-1.41
				v4.82c0,0.19-0.12,0.29-0.35,0.29s-0.35-0.1-0.35-0.29V-109.88z"/>
			<path class="st1" d="M37.64-102.89c0.29,0,0.51,0.24,0.51,0.52c0,0.29-0.22,0.52-0.51,0.52c-0.32,0-0.53-0.23-0.53-0.52
				C37.11-102.65,37.32-102.89,37.64-102.89z"/>
			<path class="st1" d="M39.34-101.18c0.83-1.07,1.44-2.51,1.44-4.16v-0.29c0-1.61-0.57-3.1-1.43-4.2c-0.2-0.26,0.18-0.57,0.45-0.3
				c1.05,1.14,1.79,2.63,1.79,4.52v0.23c0,1.92-0.83,3.48-1.8,4.51C39.54-100.62,39.16-100.93,39.34-101.18z"/>
		</g>
	</g>
	<g>
		<g>
			<path class="st2" d="M606.98-145c0,1.06,0,2.09,0,3.14c-0.66,0-1.31,0-1.97,0c0-1.65,0-3.3,0-4.97c0.06,0,0.11,0,0.16,0
				c1.13,0,2.26,0,3.39,0c0.13,0,0.26-0.01,0.38-0.04c0.4-0.12,0.63-0.48,0.58-0.91c-0.04-0.36-0.37-0.66-0.76-0.68
				c-0.09-0.01-0.18-0.01-0.26-0.01c-1.1,0-2.21,0-3.31,0c-0.05,0-0.11,0-0.18,0c0-0.61,0-1.21,0-1.82c0.05,0,0.09-0.01,0.13-0.01
				c1.14,0,2.29,0,3.43,0c0.68,0,1.32,0.15,1.88,0.56c0.8,0.59,1.16,1.39,1.07,2.38c-0.09,0.96-0.6,1.64-1.46,2.06
				c-0.01,0.01-0.02,0.01-0.05,0.03c0.87,1.14,1.74,2.28,2.62,3.44c-0.06,0-0.1,0-0.13,0c-0.71,0-1.42,0-2.13,0
				c-0.08,0-0.13-0.03-0.18-0.09c-0.76-0.99-1.52-1.97-2.28-2.96c-0.06-0.07-0.11-0.11-0.21-0.1C607.47-145,607.23-145,606.98-145z"
				/>
			<path class="st2" d="M565.92-148.47c0,1.06,0,2.11,0,3.15c-0.66,0-1.31,0-1.97,0c0-1.66,0-3.32,0-4.98
				c0.03,0,0.06-0.01,0.09-0.01c1.11,0,2.22-0.03,3.32,0.02c1.99,0.1,3.66,1.53,3.99,3.49c0.38,2.27-1.07,4.39-3.32,4.84
				c-0.37,0.07-0.75,0.1-1.13,0.11c-0.48,0.02-0.96,0-1.45,0c0-0.61,0-1.21,0-1.83c0.05,0,0.1,0,0.15,0c0.47,0,0.93,0.02,1.4-0.01
				c1.01-0.06,1.77-0.53,2.17-1.48c0.58-1.38-0.22-2.9-1.67-3.24c-0.18-0.04-0.36-0.06-0.55-0.06
				C566.62-148.48,566.28-148.47,565.92-148.47z"/>
			<path class="st2" d="M579.09-143.68c0,0.62,0,1.22,0,1.83c-2.01,0-4.02,0-6.04,0c0-1.72,0-3.44,0-5.17c1.84,0,3.69,0,5.54,0
				c0,0.6,0,1.2,0,1.82c-1.19,0-2.37,0-3.57,0c0,0.51,0,1.01,0,1.53C576.38-143.68,577.73-143.68,579.09-143.68z"/>
			<path class="st2" d="M599.09-143.67c1.36,0,2.71,0,4.06,0c0,0.61,0,1.21,0,1.82c-2.01,0-4.02,0-6.04,0c0-1.72,0-3.44,0-5.17
				c1.84,0,3.69,0,5.54,0c0,0.6,0,1.2,0,1.81c-1.19,0-2.37,0-3.57,0C599.09-144.69,599.09-144.19,599.09-143.67z"/>
			<path class="st2" d="M626.53-141.66c0-0.08,0-0.15,0-0.21c0-0.49,0.01-0.98,0-1.47c0-0.13,0.03-0.2,0.16-0.25
				c0.3-0.11,0.53-0.3,0.61-0.62c0.12-0.48-0.18-0.99-0.7-1.14c-0.18-0.05-0.38-0.08-0.57-0.08c-0.41-0.01-0.81,0-1.22,0
				c-0.05,0-0.1,0-0.16,0c0-0.55,0-1.09,0-1.64c0.05,0,0.11-0.01,0.16-0.01c0.48-0.01,0.96,0.01,1.44-0.02
				c0.34-0.02,0.6-0.2,0.72-0.52c0.12-0.3,0.08-0.58-0.14-0.82c-0.08-0.09-0.2-0.13-0.29-0.21c-0.04-0.03-0.09-0.07-0.09-0.11
				c-0.01-0.55,0-1.1,0-1.65c0-0.02,0.01-0.04,0.01-0.06c0.67,0.03,1.29,0.22,1.8,0.67c0.57,0.49,0.85,1.12,0.8,1.87
				c-0.04,0.58-0.3,1.06-0.71,1.46c-0.03,0.03-0.07,0.06-0.09,0.07c0.2,0.21,0.41,0.38,0.58,0.58c0.74,0.91,0.7,2.24-0.07,3.13
				C628.18-142.01,627.33-141.69,626.53-141.66z"/>
			<path class="st2" d="M633.69-141.51c-0.48-0.5-0.93-0.96-1.4-1.44c0.01-0.01,0.05-0.05,0.09-0.08c0.75-0.59,1.45-1.23,1.96-2.05
				c0.35-0.56,0.61-1.17,0.69-1.83c0.09-0.71-0.07-1.33-0.73-1.73c-0.03-0.02-0.06-0.07-0.06-0.11c0-0.59,0-1.18,0-1.8
				c0.19,0.03,0.36,0.06,0.53,0.1c1.22,0.31,2.16,1.38,2.31,2.63c0.1,0.86-0.06,1.68-0.37,2.48c-0.38,0.97-0.98,1.81-1.69,2.55
				C634.59-142.35,634.14-141.95,633.69-141.51z"/>
			<path class="st2" d="M582.32-144.78c0.07,0.18,0.12,0.36,0.2,0.52c0.29,0.58,0.77,0.86,1.42,0.85c0.29,0,0.58-0.05,0.84-0.18
				c0.35-0.18,0.53-0.5,0.47-0.87c-0.03-0.22-0.17-0.35-0.34-0.46c-0.15-0.09-0.31-0.16-0.48-0.25c0.27-0.56,0.53-1.12,0.81-1.69
				c0.37,0.16,0.71,0.34,1.03,0.56c0.46,0.33,0.83,0.73,0.97,1.28c0.27,1.03-0.03,1.91-0.82,2.6c-0.6,0.53-1.32,0.76-2.1,0.81
				c-0.72,0.04-1.42-0.04-2.08-0.34c-0.91-0.41-1.47-1.11-1.71-2.07c-0.01-0.06-0.03-0.1,0.05-0.13
				C581.16-144.36,581.74-144.57,582.32-144.78z"/>
			<path class="st2" d="M590.33-144.77c0.06,0.17,0.11,0.34,0.19,0.49c0.29,0.58,0.76,0.87,1.41,0.87c0.3,0,0.6-0.04,0.87-0.19
				c0.35-0.18,0.52-0.5,0.47-0.86c-0.03-0.22-0.16-0.36-0.34-0.46c-0.15-0.09-0.31-0.16-0.48-0.25c0.27-0.56,0.54-1.12,0.81-1.69
				c0.67,0.3,1.3,0.64,1.72,1.25c0.57,0.82,0.49,2.01-0.17,2.82c-0.51,0.64-1.2,0.99-1.99,1.13c-0.89,0.16-1.77,0.08-2.6-0.3
				c-0.9-0.41-1.45-1.11-1.68-2.07c-0.02-0.06-0.01-0.1,0.06-0.12c0.57-0.2,1.13-0.41,1.7-0.61
				C590.31-144.77,590.32-144.77,590.33-144.77z"/>
			<path class="st2" d="M582.9-145.68c-0.71-0.29-1.4-0.61-1.76-1.33c-0.45-0.89-0.32-2.01,0.59-2.74c0.82-0.66,1.77-0.89,2.81-0.79
				c1,0.1,1.8,0.53,2.37,1.37c0.11,0.16,0.19,0.34,0.3,0.53c-0.6,0.29-1.18,0.58-1.77,0.87c-0.03-0.05-0.05-0.1-0.07-0.15
				c-0.35-0.73-1.17-1.04-1.91-0.72c-0.14,0.06-0.27,0.16-0.37,0.27c-0.21,0.24-0.16,0.54,0.11,0.71c0.16,0.11,0.34,0.18,0.52,0.27
				C583.44-146.83,583.17-146.26,582.9-145.68z"/>
			<path class="st2" d="M595.19-148.64c-0.59,0.29-1.17,0.57-1.74,0.85c-0.11-0.17-0.2-0.34-0.32-0.49
				c-0.42-0.52-1.28-0.65-1.85-0.29c-0.08,0.05-0.15,0.11-0.21,0.18c-0.21,0.26-0.17,0.55,0.11,0.73c0.16,0.1,0.33,0.17,0.52,0.27
				c-0.26,0.56-0.53,1.12-0.8,1.71c-0.16-0.07-0.32-0.13-0.47-0.21c-0.43-0.21-0.83-0.46-1.13-0.85c-0.55-0.72-0.61-1.96,0.16-2.78
				c0.52-0.55,1.17-0.86,1.9-0.99c0.91-0.16,1.78-0.07,2.59,0.41C594.53-149.75,594.93-149.26,595.19-148.64z"/>
			<path class="st2" d="M619.12-150.3c0,0.61,0,1.21,0,1.82c-2.15,0-4.29,0-6.45,0c0-0.61,0-1.21,0-1.82
				C614.83-150.3,616.97-150.3,619.12-150.3z"/>
			<path class="st2" d="M633.06-144.6c-1.82-0.25-2.77-1.47-2.75-3.01c0.02-1.72,1.21-2.76,2.76-2.93c0,0.04,0.01,0.09,0.01,0.13
				c0,0.54,0,1.08,0,1.62c0,0.09-0.03,0.14-0.1,0.19c-0.85,0.51-0.84,1.56,0,2.07c0.05,0.03,0.1,0.09,0.1,0.14
				c0.01,0.58,0,1.16,0,1.74C633.07-144.63,633.06-144.62,633.06-144.6z"/>
			<path class="st2" d="M579.08-150.3c0,0.6,0,1.2,0,1.81c-2.01,0-4.02,0-6.04,0c0-0.6,0-1.2,0-1.81
				C575.06-150.3,577.07-150.3,579.08-150.3z"/>
			<path class="st2" d="M597.11-148.49c0-0.6,0-1.2,0-1.81c2.02,0,4.02,0,6.04,0c0,0.6,0,1.2,0,1.81
				C601.14-148.49,599.14-148.49,597.11-148.49z"/>
			<path class="st2" d="M614.93-146.82c0.66,0,1.3,0,1.95,0c0,1.66,0,3.31,0,4.97c-0.65,0-1.29,0-1.95,0
				C614.93-143.51,614.93-145.16,614.93-146.82z"/>
			<path class="st2" d="M625.37-141.67c-1.15-0.13-2.07-0.65-2.69-1.66c0.48-0.36,0.95-0.71,1.43-1.07c0.23,0.3,0.51,0.54,0.84,0.71
				c0.11,0.06,0.24,0.1,0.35,0.15c0.04,0.02,0.09,0.06,0.09,0.1c0,0.58,0,1.15,0,1.73C625.39-141.7,625.38-141.7,625.37-141.67z"/>
			<path class="st2" d="M624.07-147.85c-0.44-0.36-0.88-0.71-1.33-1.07c0.62-0.92,1.47-1.43,2.57-1.56
				c0.01,0.04,0.01,0.07,0.01,0.11c0,0.52,0,1.04,0,1.56c0,0.07-0.01,0.12-0.09,0.14c-0.46,0.13-0.83,0.4-1.12,0.77
				C624.11-147.89,624.09-147.87,624.07-147.85z"/>
		</g>
		<rect x="549.07" y="-156.62" class="st3" width="102.94" height="21.16"/>
	</g>
</g>
<g id="작업내용">
	<g>
		<path class="st4" d="M-160.39-145.74c-0.7-0.4-0.72-1.2,0-1.6l5.48-3.18c0.63-0.34,1.09,0.6,0.48,0.92l-5.34,3.06l5.37,2.89
			c0.58,0.3,0.15,1.31-0.45,0.96L-160.39-145.74z"/>
		<path class="st4" d="M-152.13-142.74h3.56v-2.23c0-0.24,0.19-0.36,0.52-0.36c0.33,0,0.52,0.12,0.52,0.36v2.23
			c1.53-0.03,2.84-0.21,3.71-0.39c0.22-0.06,0.43,0.06,0.48,0.33c0.04,0.29-0.03,0.5-0.27,0.56c-0.97,0.24-2.71,0.45-4.49,0.45
			h-4.04c-0.24,0-0.42-0.16-0.42-0.48C-152.55-142.57-152.37-142.74-152.13-142.74z M-151.74-145.66c1.47-0.5,3.07-1.12,3.13-3.3
			h-2.87c-0.28,0-0.39-0.18-0.39-0.45c0-0.28,0.12-0.46,0.39-0.46h6.87c0.27,0,0.4,0.18,0.4,0.46c0,0.27-0.13,0.45-0.4,0.45h-2.92
			c0.06,2.15,1.77,2.67,3.16,3.09c0.24,0.09,0.31,0.36,0.22,0.63c-0.1,0.27-0.34,0.38-0.64,0.29c-1.41-0.38-2.75-1.12-3.26-2.33
			c-0.43,1.29-1.71,2.07-3.23,2.49c-0.3,0.07-0.51-0.02-0.63-0.24C-152.03-145.29-152-145.57-151.74-145.66z M-149.83-152.13h3.52
			c0.25,0,0.39,0.18,0.39,0.45c0,0.28-0.12,0.46-0.39,0.46h-3.52c-0.27,0-0.39-0.18-0.39-0.46
			C-150.22-151.96-150.08-152.13-149.83-152.13z M-141.41-152.14v12.79c0,0.28-0.18,0.43-0.52,0.43c-0.34,0-0.52-0.15-0.52-0.43
			v-12.79c0-0.24,0.19-0.41,0.52-0.41C-141.59-152.55-141.41-152.38-141.41-152.14z"/>
		<path class="st4" d="M-133.48-147.19c0-0.26,0.21-0.41,0.55-0.41c0.33,0,0.52,0.15,0.52,0.41v1.66h5.43c0.24,0,0.37,0.2,0.37,0.47
			s-0.13,0.45-0.37,0.45h-11.95c-0.24,0-0.36-0.18-0.36-0.45s0.12-0.47,0.36-0.47h5.43V-147.19z M-137.39-146.85
			c-0.31,0.06-0.58-0.11-0.58-0.49c0-0.2,0.1-0.38,0.3-0.41c2.1-0.32,4.13-1.28,4.13-3.07v-0.12h-3.79c-0.27,0-0.39-0.18-0.39-0.45
			c0-0.3,0.12-0.46,0.39-0.46h8.8c0.25,0,0.4,0.17,0.4,0.46c0,0.27-0.13,0.45-0.4,0.45h-3.8v0.12c0,1.78,2.16,2.79,4.15,3.06
			c0.19,0.03,0.31,0.21,0.31,0.41c0,0.3-0.19,0.55-0.58,0.51c-1.95-0.27-3.73-1.15-4.48-2.53
			C-133.65-148-135.44-147.15-137.39-146.85z M-132.93-143.43c3.07,0,4.55,0.81,4.55,2.4c0,1.56-1.48,2.37-4.55,2.37
			c-3.08,0-4.57-0.81-4.57-2.37C-137.49-142.62-136.01-143.43-132.93-143.43z M-132.93-139.51c2.47,0,3.46-0.57,3.46-1.53
			c0-0.96-0.99-1.53-3.46-1.53c-2.47,0-3.49,0.57-3.49,1.53C-136.42-140.08-135.4-139.51-132.93-139.51z"/>
		<path class="st4" d="M-124.26-142.69c-0.6,0.35-1.06-0.66-0.46-0.96l5.37-2.89l-5.34-3.06c-0.63-0.31-0.13-1.26,0.49-0.92
			l5.49,3.18c0.7,0.4,0.7,1.2-0.02,1.6L-124.26-142.69z"/>
		<path class="st2" d="M-105.81-148.74c0,1.72-1.15,3.04-2.69,4.63l-2.14,2.2h4.67c0.3,0,0.46,0.26,0.46,0.51s-0.15,0.51-0.46,0.51
			h-5.52c-0.42,0-0.7-0.13-0.7-0.45c0-0.41,0.19-0.68,0.61-1.1c2.32-2.37,4.61-4.27,4.61-6.3c0-1.3-0.88-2.17-2.19-2.17
			c-1.36,0-2.01,1.29-2.59,1.29c-0.25,0-0.49-0.24-0.49-0.51c0-0.08,0.02-0.15,0.06-0.23c0.51-0.78,1.65-1.53,3.05-1.53
			C-107.2-151.87-105.81-150.67-105.81-148.74z"/>
		<path class="st2" d="M-97.47-148.74c0,1.72-1.15,3.04-2.69,4.63l-2.14,2.2h4.67c0.3,0,0.46,0.26,0.46,0.51s-0.15,0.51-0.46,0.51
			h-5.52c-0.42,0-0.7-0.13-0.7-0.45c0-0.41,0.19-0.68,0.61-1.1c2.32-2.37,4.61-4.27,4.61-6.3c0-1.3-0.88-2.17-2.19-2.17
			c-1.36,0-2.01,1.29-2.59,1.29c-0.25,0-0.49-0.24-0.49-0.51c0-0.08,0.02-0.15,0.06-0.23c0.51-0.78,1.65-1.53,3.05-1.53
			C-98.86-151.87-97.47-150.67-97.47-148.74z"/>
		<path class="st2" d="M-95.73-145.72v-1.19c0-3.78,1.53-4.98,3.53-4.98c1.98,0,3.49,1.2,3.49,4.98v1.19c0,3.61-1.48,5.01-3.49,5.01
			C-94.24-140.71-95.73-142.11-95.73-145.72z M-89.88-145.54v-1.52c0-2.74-0.91-3.84-2.32-3.84c-1.45,0-2.37,1.1-2.37,3.84v1.52
			c0,2.71,0.93,3.85,2.37,3.85C-90.81-141.69-89.88-142.83-89.88-145.54z"/>
		<path class="st2" d="M-81.33-150.69h-4.33v3.57c0.43-0.21,1.12-0.39,1.63-0.39c2.07,0,3.5,1.12,3.5,3.3
			c0,1.89-1.27,3.49-3.62,3.49c-1.33,0-2.41-0.55-3.02-1.33c-0.36-0.54,0.45-1.14,0.85-0.63c0.55,0.57,1.3,0.98,2.17,0.98
			c1.63,0,2.53-1.14,2.53-2.49c0-1.56-1.02-2.38-2.66-2.38c-0.45,0-1.06,0.17-1.53,0.42c-0.36,0.21-0.87,0.12-0.87-0.45v-4.33
			c0-0.58,0.27-0.75,0.84-0.75h4.51c0.3,0,0.45,0.19,0.45,0.51C-80.89-150.88-81.03-150.69-81.33-150.69z"/>
		<path class="st2" d="M-72.46-148.74c0,1.72-1.15,3.04-2.69,4.63l-2.14,2.2h4.67c0.3,0,0.46,0.26,0.46,0.51s-0.15,0.51-0.46,0.51
			h-5.52c-0.42,0-0.7-0.13-0.7-0.45c0-0.41,0.19-0.68,0.61-1.1c2.32-2.37,4.61-4.27,4.61-6.3c0-1.3-0.88-2.17-2.19-2.17
			c-1.36,0-2.01,1.29-2.59,1.29c-0.25,0-0.49-0.24-0.49-0.51c0-0.08,0.02-0.15,0.06-0.23c0.51-0.78,1.65-1.53,3.05-1.53
			C-73.85-151.87-72.46-150.67-72.46-148.74z"/>
		<path class="st2" d="M-64.21-149.26c0,1.42-0.96,2.26-2.01,2.56c1.23,0.27,2.37,1.1,2.37,2.79c0,1.86-1.42,3.18-3.68,3.18
			c-1.32,0-2.44-0.54-3.04-1.32c-0.34-0.54,0.46-1.14,0.85-0.63c0.54,0.58,1.32,0.96,2.17,0.96c1.65,0,2.56-0.93,2.56-2.26
			c0-1.33-1.08-2.16-2.74-2.16h-0.82c-0.54,0-0.55-0.96,0-0.96h0.79c1.35,0,2.42-0.78,2.42-2.09c0-1.18-1.03-1.71-2.17-1.71
			c-0.9,0-1.54,0.36-2.08,0.94c-0.43,0.47-1.12-0.09-0.84-0.55c0.55-0.77,1.56-1.37,2.95-1.37C-65.65-151.87-64.21-151-64.21-149.26
			z"/>
		<path class="st2" d="M-56.28-150.37c-0.27,0-0.3,0.06-0.3,0.29v6.06c0,0.29,0.03,0.31,0.3,0.31h0.9c2.19,0,3.85-0.21,5.28-0.54
			c0.33-0.08,0.48,0.18,0.48,0.51c0,0.21-0.1,0.35-0.27,0.39c-1.32,0.36-3.91,0.57-6.2,0.57c-1.15,0-1.57-0.09-1.57-1.05v-6.52
			c0-0.71,0.19-0.94,0.97-0.94h5.18c0.25,0,0.39,0.18,0.39,0.48c0,0.28-0.13,0.45-0.39,0.45H-56.28z M-48.4-152.11
			c0-0.25,0.19-0.4,0.52-0.4c0.34,0,0.52,0.15,0.52,0.4v12.76c0,0.28-0.18,0.43-0.52,0.43c-0.34,0-0.52-0.15-0.52-0.43V-152.11z"/>
		<path class="st2" d="M-43.99-142.48c-0.3,0.15-0.54,0.08-0.69-0.18c-0.15-0.27-0.1-0.52,0.15-0.68c1.63-1,3.17-2.38,3.17-5.28
			v-1.68h-2.95c-0.27,0-0.39-0.19-0.39-0.48c0-0.27,0.13-0.45,0.39-0.45h6.95c0.27,0,0.4,0.18,0.4,0.45c0,0.29-0.12,0.48-0.4,0.48
			h-2.92v1.69c0,2.88,1.72,4.2,3.28,5.05c0.22,0.14,0.28,0.41,0.13,0.66c-0.15,0.29-0.36,0.36-0.66,0.23
			c-1.41-0.71-2.78-1.95-3.29-3.58C-41.23-144.6-42.42-143.35-43.99-142.48z M-33.72-152.13v12.78c0,0.28-0.19,0.43-0.52,0.43
			c-0.34,0-0.54-0.15-0.54-0.43v-7.62h-2.92c-0.25,0-0.4-0.15-0.4-0.47c0-0.3,0.15-0.46,0.4-0.46h2.92v-4.23
			c0-0.25,0.19-0.4,0.54-0.4C-33.91-152.53-33.72-152.38-33.72-152.13z"/>
		<path class="st2" d="M-31.33-141.04c-0.24,0-0.39-0.18-0.39-0.48c0-0.28,0.15-0.46,0.39-0.46h11.92c0.24,0,0.37,0.18,0.37,0.46
			c0,0.3-0.13,0.48-0.37,0.48H-31.33z M-29.87-150.57c0-0.72,0.21-0.98,0.97-0.98h7.83c0.25,0,0.4,0.17,0.4,0.47
			c0,0.3-0.15,0.46-0.4,0.46h-7.42c-0.25,0-0.28,0.04-0.28,0.27v1.9h7.44c0.27,0,0.42,0.15,0.42,0.45c0,0.3-0.15,0.46-0.42,0.46
			h-7.44v1.88c0,0.24,0.04,0.3,0.28,0.3h7.48c0.27,0,0.42,0.16,0.42,0.46c0,0.3-0.15,0.45-0.42,0.45h-7.87
			c-0.7,0-0.99-0.19-0.99-0.99V-150.57z"/>
		<path class="st2" d="M-11.46-149.26c0,1.42-0.96,2.26-2.01,2.56c1.23,0.27,2.37,1.1,2.37,2.79c0,1.86-1.42,3.18-3.68,3.18
			c-1.32,0-2.44-0.54-3.04-1.32c-0.34-0.54,0.46-1.14,0.85-0.63c0.54,0.58,1.32,0.96,2.17,0.96c1.65,0,2.56-0.93,2.56-2.26
			c0-1.33-1.08-2.16-2.74-2.16h-0.82c-0.54,0-0.55-0.96,0-0.96h0.79c1.35,0,2.42-0.78,2.42-2.09c0-1.18-1.03-1.71-2.17-1.71
			c-0.9,0-1.54,0.36-2.08,0.94c-0.43,0.47-1.12-0.09-0.84-0.55c0.55-0.77,1.56-1.37,2.95-1.37C-12.9-151.87-11.46-151-11.46-149.26z
			"/>
		<path class="st2" d="M-3.8-146.47c-0.3,0.77-1.36,1.62-2.5,1.62c-1.92,0-3.29-1.27-3.29-3.42c0-2.1,1.15-3.58,3.4-3.58
			c2.23,0,3.49,1.67,3.5,5.46c0.03,3.99-1.51,5.65-3.67,5.65c-1.3,0-2.25-0.45-2.81-1.11c-0.34-0.45,0.28-1.12,0.75-0.69
			c0.54,0.54,1.24,0.79,2.07,0.79C-4.8-141.75-3.75-143.17-3.8-146.47z M-8.5-148.35c0,1.71,1.03,2.56,2.41,2.56
			c0.93,0,2.1-0.96,2.2-2.19c-0.07-1.53-0.84-2.95-2.28-2.95C-7.54-150.93-8.5-149.94-8.5-148.35z"/>
		<path class="st2" d="M-1.57-138.39c-0.24,0-0.37-0.17-0.37-0.42c0-0.27,0.13-0.43,0.37-0.43H3.1c0.25,0,0.39,0.17,0.39,0.43
			c0,0.26-0.13,0.42-0.39,0.42H-1.57z"/>
		<path class="st2" d="M4.93-150.33c-0.24,0-0.4-0.16-0.4-0.46c0-0.3,0.16-0.46,0.4-0.46h3.8c0.75,0,1.03,0.1,1.03,0.87
			c0,3.85-1.47,6.6-4.82,8.25c-0.09,0.04-0.18,0.08-0.27,0.08c-0.24,0-0.51-0.24-0.51-0.56c0-0.16,0.09-0.31,0.24-0.39
			c1.89-0.92,3.13-2.22,3.77-3.94H4.45c-0.25,0-0.39-0.18-0.39-0.46c0-0.27,0.13-0.43,0.39-0.43h4c0.16-0.69,0.25-1.44,0.25-2.26
			c0-0.18-0.04-0.21-0.28-0.21H4.93z M11.48-151.89c0-0.23,0.18-0.38,0.52-0.38c0.31,0,0.51,0.15,0.51,0.38v4.5h2.07v-4.74
			c0-0.25,0.18-0.39,0.51-0.39c0.33,0,0.51,0.13,0.51,0.39v12.79c0,0.27-0.16,0.42-0.51,0.42c-0.33,0-0.51-0.15-0.51-0.42v-7.11
			h-2.07v6.76c0,0.27-0.18,0.42-0.51,0.42c-0.34,0-0.52-0.15-0.52-0.42V-151.89z"/>
		<path class="st2" d="M18.58-151.77h4.79c0.66,0,0.85,0.22,0.85,0.84v2.08c0,0.63-0.22,0.84-0.87,0.84h-3.8
			c-0.24,0-0.28,0.03-0.28,0.25v1.56c0,0.25,0.05,0.29,0.28,0.3c3.46,0.09,5.13-0.13,6.21-0.39c0.22-0.06,0.42,0.06,0.46,0.33
			c0.06,0.29-0.04,0.5-0.25,0.54c-1.05,0.27-3.04,0.5-6.86,0.44c-0.64,0-0.91-0.24-0.91-0.9v-2.16c0-0.6,0.17-0.81,0.84-0.81h3.83
			c0.24,0,0.28-0.04,0.28-0.27v-1.47c0-0.22-0.04-0.27-0.28-0.27h-4.3c-0.27,0-0.4-0.18-0.4-0.45
			C18.17-151.59,18.31-151.77,18.58-151.77z M20.09-143.4h7.57c0.67,0,0.96,0.21,0.96,0.9v3.51c0,0.25-0.22,0.4-0.54,0.4
			c-0.34,0-0.54-0.15-0.54-0.4v-3.25c0-0.23-0.05-0.25-0.25-0.25h-7.2c-0.27,0-0.39-0.17-0.39-0.45
			C19.7-143.25,19.82-143.4,20.09-143.4z M28.62-152.13v7.53c0,0.27-0.19,0.42-0.54,0.42c-0.33,0-0.51-0.15-0.51-0.42v-7.53
			c0-0.25,0.19-0.4,0.51-0.4C28.41-152.53,28.62-152.38,28.62-152.13z"/>
		<path class="st2" d="M31.6-150.42c0-0.71,0.19-0.94,0.97-0.94h4.96c0.25,0,0.4,0.18,0.4,0.48c0,0.29-0.15,0.46-0.4,0.46h-4.55
			c-0.28,0-0.31,0.04-0.31,0.29v2.53h4.37c0.25,0,0.39,0.18,0.39,0.47c0,0.3-0.13,0.45-0.39,0.45h-4.37v2.73
			c0,0.27,0.04,0.31,0.3,0.31c2.22,0.04,3.95-0.08,5.4-0.4c0.21-0.04,0.42,0.07,0.48,0.34c0.04,0.3-0.07,0.51-0.28,0.56
			c-1.51,0.38-3.38,0.48-5.94,0.44c-0.76-0.02-1.02-0.29-1.02-1.07V-150.42z M41.16-152.14c0-0.24,0.18-0.41,0.52-0.41
			c0.33,0,0.52,0.17,0.52,0.41v12.79c0,0.28-0.19,0.43-0.52,0.43c-0.34,0-0.52-0.15-0.52-0.43v-7.62h-2.54
			c-0.27,0-0.42-0.16-0.42-0.47c0-0.31,0.15-0.48,0.42-0.48h2.54V-152.14z"/>
		<path class="st2" d="M48.68-144.69h11.92c0.24,0,0.37,0.18,0.37,0.46c0,0.3-0.13,0.46-0.37,0.46h-5.42v4.71
			c0,0.3-0.21,0.45-0.54,0.45c-0.34,0-0.55-0.15-0.55-0.45v-4.71h-5.4c-0.24,0-0.39-0.17-0.39-0.46
			C48.29-144.51,48.44-144.69,48.68-144.69z M55.19-152.1v0.67c0,2.37,2.37,3.67,4.4,4.12c0.25,0.06,0.34,0.33,0.25,0.61
			c-0.1,0.25-0.31,0.38-0.61,0.31c-1.9-0.4-3.83-1.45-4.6-3.27c-0.69,1.84-2.68,2.86-4.58,3.28c-0.3,0.06-0.49-0.06-0.6-0.32
			c-0.1-0.29-0.02-0.57,0.24-0.62c2.1-0.46,4.39-1.77,4.39-4.12v-0.69c0-0.26,0.21-0.39,0.55-0.39
			C54.98-152.49,55.19-152.35,55.19-152.1z"/>
		<path class="st2" d="M62.9-144.75c-0.3,0.1-0.52,0-0.64-0.24c-0.1-0.25-0.08-0.52,0.19-0.63c1.65-0.72,3.1-1.74,3.1-4.35v-0.65
			h-2.83c-0.27,0-0.39-0.19-0.39-0.46c0-0.29,0.13-0.47,0.39-0.47h6.8c0.27,0,0.4,0.2,0.4,0.47c0,0.27-0.12,0.46-0.4,0.46h-2.9v0.65
			c0,2.58,1.78,3.49,3.23,4.02c0.24,0.09,0.31,0.35,0.21,0.58c-0.1,0.26-0.31,0.41-0.64,0.3c-1.42-0.48-2.77-1.38-3.29-2.81
			C65.7-146.41,64.44-145.36,62.9-144.75z M68.9-138.72c-2.9,0-4.45-0.96-4.45-2.62c0-1.66,1.54-2.62,4.45-2.62
			c2.92,0,4.45,0.96,4.45,2.62C73.35-139.68,71.82-138.72,68.9-138.72z M68.9-143.08c-2.19,0-3.35,0.66-3.35,1.74
			c0,1.1,1.18,1.75,3.35,1.75c2.19,0,3.35-0.66,3.35-1.75C72.25-142.42,71.09-143.08,68.9-143.08z M73.18-152.13v7.51
			c0,0.29-0.18,0.44-0.52,0.44c-0.34,0-0.52-0.15-0.52-0.44v-3.43h-2.72c-0.25,0-0.4-0.17-0.4-0.47c0-0.33,0.15-0.48,0.4-0.48h2.72
			v-3.13c0-0.25,0.19-0.4,0.52-0.4C72.99-152.53,73.18-152.38,73.18-152.13z"/>
		<path class="st2" d="M79.02-151.71c2.11,0,3.5,1.37,3.5,3.27s-1.39,3.24-3.5,3.24c-2.16,0-3.53-1.33-3.53-3.24
			S76.86-151.71,79.02-151.71z M79.02-146.1c1.54,0,2.47-0.99,2.47-2.36c0-1.36-0.93-2.35-2.47-2.35c-1.57,0-2.48,0.99-2.48,2.35
			C76.53-147.09,77.45-146.1,79.02-146.1z M77.45-143.35c0-0.27,0.21-0.42,0.54-0.42c0.33,0,0.54,0.15,0.54,0.42v3.22
			c0,0.21,0.03,0.24,0.25,0.24h7.26c0.27,0,0.39,0.17,0.39,0.46c0,0.29-0.12,0.46-0.39,0.46h-7.07c-0.94,0-1.53,0.06-1.53-0.85
			V-143.35z M84.8-152.13c0-0.25,0.19-0.39,0.51-0.39c0.33,0,0.52,0.13,0.52,0.39v3.66h2.02c0.25,0,0.39,0.17,0.39,0.45
			c0,0.31-0.13,0.46-0.39,0.46h-2.02v4.48c0,0.3-0.18,0.45-0.52,0.45c-0.37,0-0.51-0.18-0.51-0.45V-152.13z"/>
	</g>
	<g>
		<g>
			<path class="st2" d="M414.16-156.02h4.08c0.16,0,0.24,0.11,0.24,0.27c0,0.17-0.07,0.29-0.24,0.29h-1.75v0.33
				c0,1.54,1.1,2.14,1.94,2.44c0.14,0.04,0.19,0.22,0.13,0.36c-0.06,0.16-0.21,0.23-0.39,0.17c-0.83-0.27-1.64-0.86-1.97-1.7
				c-0.26,0.86-1.01,1.47-1.92,1.84c-0.18,0.06-0.32,0-0.4-0.14c-0.06-0.14-0.04-0.31,0.12-0.39c0.98-0.42,1.85-1.02,1.85-2.57
				v-0.33h-1.69c-0.16,0-0.23-0.12-0.23-0.29C413.93-155.92,414.01-156.02,414.16-156.02z M415.13-151.25h4.49
				c0.4,0,0.56,0.11,0.56,0.52v2.26c0,0.15-0.13,0.24-0.32,0.24c-0.2,0-0.32-0.09-0.32-0.24v-2.08c0-0.13-0.02-0.14-0.14-0.14h-4.26
				c-0.16,0-0.25-0.1-0.25-0.27C414.88-151.15,414.97-151.25,415.13-151.25z M420.18-156.33v1.86h1.2c0.16,0,0.23,0.1,0.23,0.27
				c0,0.18-0.07,0.28-0.23,0.28h-1.2v1.94c0,0.18-0.12,0.27-0.31,0.27c-0.2,0-0.31-0.09-0.31-0.27v-4.36c0-0.15,0.12-0.24,0.31-0.24
				C420.06-156.58,420.18-156.49,420.18-156.33z"/>
			<path class="st2" d="M424.44-153.9c-0.24,0.86-1.08,1.66-2.02,1.91c-0.17,0-0.31-0.1-0.31-0.32c0-0.1,0.04-0.19,0.14-0.23
				l0.22-0.09c0.87-0.41,1.64-1.09,1.64-2.55v-0.9c0-0.15,0.12-0.23,0.31-0.23c0.23,0,0.33,0.09,0.33,0.23v0.87
				c0,1.61,1.04,2.19,1.92,2.5c0.1,0.05,0.14,0.14,0.14,0.23c0,0.15-0.13,0.34-0.29,0.34c-0.04,0-0.09-0.02-0.13-0.04
				C425.56-152.47,424.74-153.07,424.44-153.9z M426.13-148.3c-1.76,0-2.69-0.58-2.69-1.58c0-1.02,0.93-1.59,2.69-1.59
				c1.76,0,2.69,0.58,2.69,1.59C428.82-148.88,427.9-148.3,426.13-148.3z M426.13-150.96c-1.34,0-2.04,0.4-2.04,1.07
				c0,0.68,0.71,1.07,2.04,1.07c1.33,0,2.05-0.4,2.05-1.07C428.18-150.56,427.46-150.96,426.13-150.96z M428.09-156.33
				c0-0.15,0.12-0.23,0.32-0.23c0.2,0,0.31,0.1,0.31,0.23v4.44c0,0.17-0.12,0.25-0.31,0.25c-0.22,0-0.32-0.11-0.32-0.25v-2.33h-1.7
				c-0.15,0-0.23-0.1-0.23-0.28c0-0.18,0.08-0.28,0.23-0.28h1.7V-156.33z"/>
			<path class="st2" d="M430.44-150.59c-0.17,0.1-0.31,0.06-0.41-0.09c-0.09-0.13-0.08-0.31,0.08-0.41
				c0.98-0.59,1.86-1.47,1.86-3.19v-0.95h-1.72c-0.16,0-0.23-0.12-0.23-0.29c0-0.16,0.07-0.27,0.23-0.27h4.13
				c0.16,0,0.24,0.11,0.24,0.27c0,0.17-0.07,0.29-0.24,0.29h-1.75v0.95c0,1.72,1.01,2.57,1.97,3.06c0.13,0.07,0.17,0.24,0.09,0.4
				c-0.09,0.17-0.22,0.21-0.41,0.13c-0.83-0.4-1.68-1.23-1.97-2.18C432.05-151.92,431.35-151.11,430.44-150.59z M436.28-156.33v2.78
				h1.26c0.16,0,0.23,0.1,0.23,0.28c0,0.18-0.07,0.28-0.23,0.28h-1.26v4.33c0,0.17-0.12,0.26-0.32,0.26c-0.2,0-0.31-0.09-0.31-0.26
				v-7.67c0-0.15,0.12-0.24,0.31-0.24C436.16-156.58,436.28-156.49,436.28-156.33z"/>
			<path class="st2" d="M441.62-155.14c0.26,0,0.47,0.2,0.47,0.46c0,0.27-0.21,0.47-0.47,0.47c-0.26,0-0.47-0.2-0.47-0.47
				C441.16-154.95,441.36-155.14,441.62-155.14z M441.62-151.18c0.26,0,0.47,0.2,0.47,0.46c0,0.26-0.21,0.46-0.47,0.46
				c-0.26,0-0.47-0.2-0.47-0.46C441.16-150.98,441.36-151.18,441.62-151.18z"/>
			<path class="st2" d="M447.1-155.28c-0.16,0-0.18,0.04-0.18,0.17v3.64c0,0.17,0.02,0.19,0.18,0.19h0.54
				c1.31,0,2.31-0.13,3.17-0.32c0.2-0.04,0.29,0.11,0.29,0.31c0,0.13-0.06,0.21-0.16,0.23c-0.79,0.22-2.35,0.34-3.72,0.34
				c-0.69,0-0.94-0.05-0.94-0.63v-3.92c0-0.42,0.12-0.57,0.58-0.57h3.11c0.15,0,0.23,0.11,0.23,0.29c0,0.17-0.08,0.27-0.23,0.27
				H447.1z M451.83-156.32c0-0.15,0.12-0.24,0.31-0.24c0.21,0,0.31,0.09,0.31,0.24v7.66c0,0.17-0.11,0.26-0.31,0.26
				c-0.21,0-0.31-0.09-0.31-0.26V-156.32z"/>
			<path class="st2" d="M454.27-150.59c-0.17,0.1-0.31,0.06-0.41-0.09c-0.09-0.13-0.08-0.31,0.08-0.41
				c0.98-0.59,1.86-1.47,1.86-3.19v-0.95h-1.72c-0.16,0-0.23-0.12-0.23-0.29c0-0.16,0.07-0.27,0.23-0.27h4.12
				c0.16,0,0.24,0.11,0.24,0.27c0,0.17-0.07,0.29-0.24,0.29h-1.75v0.95c0,1.72,1.01,2.57,1.97,3.06c0.13,0.07,0.17,0.24,0.09,0.4
				c-0.09,0.17-0.22,0.21-0.41,0.13c-0.83-0.4-1.68-1.23-1.97-2.18C455.88-151.92,455.18-151.11,454.27-150.59z M460.1-156.33v2.78
				h1.26c0.16,0,0.23,0.1,0.23,0.28c0,0.18-0.07,0.28-0.23,0.28h-1.26v4.33c0,0.17-0.12,0.26-0.32,0.26c-0.2,0-0.31-0.09-0.31-0.26
				v-7.67c0-0.15,0.12-0.24,0.31-0.24C459.98-156.58,460.1-156.49,460.1-156.33z"/>
			<path class="st2" d="M464.34-156.08c1.28,0,2.12,0.82,2.12,1.96c0,1.14-0.84,1.94-2.12,1.94c-1.29,0-2.12-0.8-2.12-1.94
				C462.22-155.26,463.04-156.08,464.34-156.08z M464.34-152.71c0.93,0,1.5-0.59,1.5-1.41c0-0.82-0.57-1.41-1.5-1.41
				c-0.94,0-1.5,0.59-1.5,1.41C462.84-153.31,463.39-152.71,464.34-152.71z M463.47-151c0-0.15,0.13-0.25,0.32-0.25
				c0.2,0,0.32,0.1,0.32,0.25v1.87c0,0.13,0.03,0.14,0.15,0.14h4.39c0.15,0,0.23,0.1,0.23,0.28c0,0.17-0.08,0.28-0.23,0.28h-4.27
				c-0.58,0-0.93,0-0.93-0.54V-151z M467.98-156.33c0-0.15,0.13-0.23,0.31-0.23c0.2,0,0.31,0.08,0.31,0.23v5.46
				c0,0.17-0.11,0.26-0.31,0.26c-0.21,0-0.31-0.09-0.31-0.26V-156.33z"/>
			<path class="st2" d="M470.43-155.54c0-0.42,0.12-0.56,0.58-0.56h2.97c0.15,0,0.23,0.09,0.23,0.27c0,0.18-0.08,0.28-0.23,0.28
				h-2.73c-0.15,0-0.19,0.03-0.19,0.18v0.98h2.8c0.16,0,0.22,0.1,0.22,0.28c0,0.17-0.06,0.27-0.22,0.27h-2.8v1.03
				c0,0.15,0.04,0.17,0.18,0.17c1.49,0.04,2.71-0.01,3.69-0.25c0.13-0.03,0.25,0.04,0.28,0.21c0.03,0.17-0.03,0.3-0.15,0.33
				c-1.02,0.25-2.36,0.31-4.03,0.27c-0.45-0.01-0.61-0.15-0.61-0.61V-155.54z M471.43-150.76c0-0.37,0.13-0.52,0.51-0.52h4.21
				c0.38,0,0.52,0.16,0.52,0.53v1.52c0,0.48,0.05,0.89-0.54,0.89h-4.2c-0.38,0-0.51-0.16-0.51-0.54V-150.76z M472.23-150.75
				c-0.14,0-0.16,0.04-0.16,0.16v1.55c0,0.13,0.02,0.16,0.16,0.16h3.65c0.14,0,0.16-0.03,0.16-0.16v-1.55
				c0-0.13-0.02-0.16-0.16-0.16H472.23z M476.05-156.33c0-0.15,0.13-0.23,0.31-0.23c0.2,0,0.31,0.08,0.31,0.23v4.32
				c0,0.18-0.11,0.26-0.31,0.26c-0.21,0-0.31-0.08-0.31-0.26V-156.33z"/>
			<path class="st2" d="M484.09-156.05c0.38,0,0.58,0.11,0.58,0.48c0,1.84-1.43,3.19-3.5,3.73c-0.04,0.01-0.08,0.02-0.12,0.02
				c-0.13,0-0.27-0.12-0.27-0.33c0-0.12,0.05-0.21,0.16-0.23c1.77-0.48,2.97-1.46,3.08-2.94v-0.04c0-0.09-0.04-0.13-0.16-0.13h-2.68
				c-0.16,0-0.25-0.1-0.25-0.28c0-0.18,0.09-0.28,0.25-0.28H484.09z M482.02-150.89c0-0.38,0.13-0.52,0.5-0.52h4.14
				c0.38,0,0.51,0.15,0.51,0.52v2.03c0,0.38-0.13,0.51-0.52,0.51h-4.13c-0.37,0-0.5-0.15-0.5-0.53V-150.89z M482.82-150.87
				c-0.14,0-0.16,0.03-0.16,0.15v1.67c0,0.13,0.03,0.16,0.16,0.16h3.56c0.15,0,0.17-0.03,0.17-0.16v-1.67
				c0-0.13-0.03-0.15-0.17-0.15H482.82z M486.55-156.33c0-0.15,0.13-0.23,0.31-0.23c0.2,0,0.31,0.08,0.31,0.23v4.19
				c0,0.17-0.11,0.26-0.31,0.26c-0.21,0-0.31-0.09-0.31-0.26V-156.33z"/>
			<path class="st2" d="M494.71-156.33c0-0.15,0.13-0.23,0.32-0.23c0.19,0,0.31,0.08,0.31,0.23v4.27c0,0.17-0.12,0.26-0.31,0.26
				c-0.21,0-0.32-0.09-0.32-0.26V-154h-1.94v0.85c0,0.86-0.2,0.84-0.91,0.84h-2.01c-0.86,0-0.89-0.1-0.89-0.84v-2.82
				c0-0.14,0.12-0.23,0.31-0.23c0.2,0,0.31,0.08,0.31,0.23v1.2h2.54v-1.2c0-0.14,0.12-0.23,0.31-0.23c0.21,0,0.32,0.08,0.32,0.23
				v1.42h1.94V-156.33z M489.59-153.01c0,0.14,0.03,0.16,0.17,0.16h2.2c0.15,0,0.17-0.02,0.17-0.17v-1.23h-2.54V-153.01z
				 M490.14-150.8c0-0.38,0.14-0.53,0.51-0.53h4.18c0.37,0,0.52,0.16,0.52,0.54v1.93c0,0.38-0.15,0.52-0.53,0.52h-4.17
				c-0.37,0-0.51-0.16-0.51-0.54V-150.8z M490.94-150.79c-0.14,0-0.16,0.02-0.16,0.16v1.58c0,0.13,0.03,0.16,0.16,0.16h3.6
				c0.15,0,0.16-0.02,0.16-0.16v-1.58c0-0.14-0.01-0.16-0.16-0.16H490.94z"/>
			<path class="st2" d="M496.79-151.87h7.15c0.14,0,0.22,0.11,0.22,0.28c0,0.18-0.08,0.28-0.22,0.28h-3.25v2.83
				c0,0.18-0.13,0.27-0.32,0.27c-0.21,0-0.33-0.09-0.33-0.27v-2.83h-3.25c-0.14,0-0.23-0.1-0.23-0.28
				C496.56-151.76,496.65-151.87,496.79-151.87z M500.7-156.31v0.41c0,1.42,1.42,2.21,2.64,2.48c0.15,0.04,0.21,0.2,0.15,0.37
				c-0.06,0.15-0.19,0.23-0.37,0.19c-1.14-0.24-2.3-0.87-2.76-1.96c-0.41,1.11-1.61,1.72-2.75,1.97c-0.18,0.04-0.3-0.04-0.36-0.19
				c-0.06-0.17-0.01-0.34,0.14-0.37c1.26-0.28,2.63-1.06,2.63-2.48v-0.41c0-0.15,0.13-0.23,0.33-0.23
				C500.58-156.55,500.7-156.47,500.7-156.31z"/>
			<path class="st2" d="M508.81-153.36c0-0.15,0.13-0.23,0.32-0.23s0.31,0.08,0.31,0.23v2.38h0.36c0.78,0,1.69-0.1,2.19-0.22
				c0.04-0.01,0.11-0.02,0.13-0.02c0.13,0,0.23,0.12,0.23,0.31c0,0.12-0.05,0.21-0.16,0.23c-0.59,0.14-1.51,0.26-2.59,0.26h-2.35
				c-0.14,0-0.24-0.1-0.24-0.28c0-0.19,0.1-0.29,0.24-0.29h1.55V-153.36z M507.65-155.23c-0.16,0-0.24-0.1-0.24-0.28
				c0-0.18,0.08-0.28,0.24-0.28h3.2c0.58,0,0.71,0.11,0.71,0.67v0.67c0,0.5-0.06,1.42-0.26,2.02c-0.05,0.15-0.16,0.23-0.29,0.23
				c-0.18,0-0.33-0.07-0.33-0.25c0-0.04,0.01-0.1,0.02-0.13c0.17-0.65,0.22-1.34,0.22-1.82v-0.67c0-0.13-0.02-0.15-0.16-0.15H507.65
				z M512.82-156.32c0-0.15,0.12-0.24,0.31-0.24c0.2,0,0.31,0.09,0.31,0.24v2.92h1.21c0.15,0,0.23,0.1,0.23,0.28
				c0,0.18-0.08,0.28-0.23,0.28h-1.21v4.19c0,0.17-0.1,0.26-0.31,0.26c-0.21,0-0.31-0.09-0.31-0.26V-156.32z"/>
			<path class="st2" d="M515.34-152.5c0.99-0.43,1.85-1.04,1.85-2.59v-0.32h-1.68c-0.16,0-0.24-0.11-0.24-0.28
				c0-0.17,0.08-0.28,0.24-0.28h4.06c0.16,0,0.24,0.12,0.24,0.28c0,0.17-0.07,0.28-0.24,0.28h-1.74v0.32c0,1.55,1.08,2.12,1.94,2.43
				c0.14,0.05,0.19,0.23,0.13,0.36c-0.06,0.15-0.19,0.24-0.39,0.17c-0.84-0.28-1.65-0.85-1.97-1.69c-0.26,0.86-1.01,1.48-1.92,1.85
				c-0.18,0.06-0.32-0.01-0.4-0.14C515.17-152.27,515.18-152.43,515.34-152.5z M518.97-148.3c-1.75,0-2.68-0.57-2.68-1.57
				c0-1.01,0.93-1.58,2.68-1.58c1.75,0,2.68,0.57,2.68,1.58C521.65-148.87,520.72-148.3,518.97-148.3z M518.97-150.92
				c-1.32,0-2.02,0.4-2.02,1.05c0,0.67,0.71,1.05,2.02,1.05c1.32,0,2.03-0.39,2.03-1.05C521-150.53,520.29-150.92,518.97-150.92z
				 M520.89-156.33c0-0.15,0.12-0.23,0.31-0.23c0.2,0,0.31,0.08,0.31,0.23v1.96h1.21c0.15,0,0.23,0.09,0.23,0.27
				c0,0.18-0.08,0.28-0.23,0.28h-1.21v2.07c0,0.17-0.11,0.25-0.31,0.25c-0.2,0-0.31-0.08-0.31-0.25V-156.33z"/>
		</g>
		<g>
			<path class="st2" d="M414.16-141.02h4.08c0.16,0,0.24,0.11,0.24,0.27c0,0.17-0.07,0.29-0.24,0.29h-1.75v0.33
				c0,1.54,1.1,2.14,1.94,2.44c0.14,0.04,0.19,0.22,0.13,0.36c-0.06,0.16-0.21,0.23-0.39,0.17c-0.83-0.27-1.64-0.85-1.97-1.7
				c-0.26,0.86-1.01,1.47-1.92,1.84c-0.18,0.06-0.32,0-0.4-0.14c-0.06-0.14-0.04-0.31,0.12-0.39c0.98-0.42,1.85-1.02,1.85-2.57
				v-0.33h-1.69c-0.16,0-0.23-0.12-0.23-0.29C413.93-140.92,414.01-141.02,414.16-141.02z M415.13-136.26h4.49
				c0.4,0,0.56,0.11,0.56,0.52v2.26c0,0.15-0.13,0.24-0.32,0.24c-0.2,0-0.32-0.09-0.32-0.24v-2.08c0-0.13-0.02-0.14-0.14-0.14h-4.26
				c-0.16,0-0.25-0.1-0.25-0.27C414.88-136.15,414.97-136.26,415.13-136.26z M420.18-141.33v1.86h1.2c0.16,0,0.23,0.1,0.23,0.27
				c0,0.18-0.07,0.28-0.23,0.28h-1.2v1.94c0,0.18-0.12,0.27-0.31,0.27c-0.2,0-0.31-0.09-0.31-0.27v-4.36c0-0.15,0.12-0.24,0.31-0.24
				C420.06-141.58,420.18-141.49,420.18-141.33z"/>
			<path class="st2" d="M424.44-138.9c-0.24,0.86-1.08,1.66-2.02,1.91c-0.17,0-0.31-0.1-0.31-0.32c0-0.1,0.04-0.19,0.14-0.23
				l0.22-0.09c0.87-0.41,1.64-1.09,1.64-2.55v-0.9c0-0.15,0.12-0.22,0.31-0.22c0.23,0,0.33,0.09,0.33,0.22v0.87
				c0,1.61,1.04,2.19,1.92,2.5c0.1,0.05,0.14,0.14,0.14,0.23c0,0.15-0.13,0.34-0.29,0.34c-0.04,0-0.09-0.02-0.13-0.04
				C425.56-137.47,424.74-138.08,424.44-138.9z M426.13-133.3c-1.76,0-2.69-0.58-2.69-1.58c0-1.02,0.93-1.59,2.69-1.59
				c1.76,0,2.69,0.58,2.69,1.59C428.82-133.88,427.9-133.3,426.13-133.3z M426.13-135.96c-1.34,0-2.04,0.4-2.04,1.07
				c0,0.68,0.71,1.07,2.04,1.07c1.33,0,2.05-0.4,2.05-1.07C428.18-135.56,427.46-135.96,426.13-135.96z M428.09-141.33
				c0-0.15,0.12-0.23,0.32-0.23c0.2,0,0.31,0.1,0.31,0.23v4.44c0,0.17-0.12,0.25-0.31,0.25c-0.22,0-0.32-0.11-0.32-0.25v-2.33h-1.7
				c-0.15,0-0.23-0.1-0.23-0.28c0-0.18,0.08-0.28,0.23-0.28h1.7V-141.33z"/>
			<path class="st2" d="M432.43-141.31c1.25,0,2.08,0.76,2.08,1.81c0,1.05-0.83,1.8-2.08,1.8c-1.26,0-2.09-0.75-2.09-1.8
				C430.34-140.55,431.17-141.31,432.43-141.31z M432.43-138.22c0.91,0,1.45-0.55,1.45-1.29c0-0.72-0.54-1.28-1.45-1.28
				c-0.92,0-1.46,0.56-1.46,1.28C430.97-138.77,431.51-138.22,432.43-138.22z M436.83-133.81c0.15,0,0.23,0.11,0.23,0.28
				c0,0.18-0.08,0.28-0.23,0.28h-4.78c-0.39,0-0.52-0.15-0.52-0.54v-1.08c0-0.34,0.12-0.5,0.5-0.5h3.86c0.13,0,0.15-0.02,0.15-0.15
				v-0.67c0-0.13-0.02-0.15-0.15-0.15h-4.17c-0.14,0-0.22-0.11-0.22-0.29c0-0.17,0.08-0.27,0.22-0.27h4.48c0.4,0,0.5,0.15,0.5,0.51
				v1.03c0,0.38-0.16,0.51-0.52,0.51h-3.84c-0.14,0-0.16,0.02-0.16,0.14v0.73c0,0.14,0.02,0.16,0.15,0.16H436.83z M436.08-141.33
				c0-0.15,0.13-0.23,0.31-0.23c0.2,0,0.31,0.08,0.31,0.23v3.74c0,0.17-0.11,0.26-0.31,0.26c-0.21,0-0.31-0.09-0.31-0.26V-141.33z"
				/>
			<path class="st2" d="M441.62-140.15c0.26,0,0.47,0.2,0.47,0.46c0,0.27-0.21,0.47-0.47,0.47c-0.26,0-0.47-0.2-0.47-0.47
				C441.16-139.95,441.36-140.15,441.62-140.15z M441.62-136.18c0.26,0,0.47,0.2,0.47,0.46c0,0.26-0.21,0.46-0.47,0.46
				c-0.26,0-0.47-0.2-0.47-0.46C441.16-135.99,441.36-136.18,441.62-136.18z"/>
			<path class="st2" d="M449.83-139.3c0,1.04-0.69,1.83-1.62,2.78l-1.29,1.32h2.8c0.18,0,0.28,0.15,0.28,0.31
				c0,0.15-0.09,0.31-0.28,0.31h-3.32c-0.25,0-0.42-0.08-0.42-0.27c0-0.24,0.12-0.4,0.37-0.66c1.39-1.42,2.77-2.57,2.77-3.78
				c0-0.78-0.53-1.31-1.31-1.31c-0.82,0-1.2,0.77-1.55,0.77c-0.15,0-0.3-0.14-0.3-0.31c0-0.04,0.01-0.09,0.04-0.13
				c0.31-0.47,0.99-0.92,1.83-0.92C448.99-141.18,449.83-140.46,449.83-139.3z"/>
			<path class="st2" d="M450.86-137.49v-0.71c0-2.27,0.92-2.99,2.12-2.99c1.19,0,2.09,0.72,2.09,2.99v0.71
				c0,2.17-0.89,3.01-2.09,3.01C451.76-134.48,450.86-135.32,450.86-137.49z M454.38-137.38v-0.91c0-1.65-0.55-2.3-1.39-2.3
				c-0.87,0-1.42,0.66-1.42,2.3v0.91c0,1.63,0.56,2.31,1.42,2.31C453.82-135.07,454.38-135.75,454.38-137.38z"/>
			<path class="st2" d="M459.83-139.3c0,1.04-0.69,1.83-1.62,2.78l-1.29,1.32h2.8c0.18,0,0.28,0.15,0.28,0.31
				c0,0.15-0.09,0.31-0.28,0.31h-3.32c-0.25,0-0.42-0.08-0.42-0.27c0-0.24,0.12-0.4,0.37-0.66c1.39-1.42,2.77-2.57,2.77-3.78
				c0-0.78-0.53-1.31-1.31-1.31c-0.82,0-1.2,0.77-1.55,0.77c-0.15,0-0.3-0.14-0.3-0.31c0-0.04,0.01-0.09,0.04-0.13
				c0.31-0.47,0.99-0.92,1.83-0.92C458.99-141.18,459.83-140.46,459.83-139.3z"/>
			<path class="st2" d="M464.83-139.3c0,1.04-0.69,1.83-1.62,2.78l-1.29,1.32h2.8c0.18,0,0.28,0.15,0.28,0.31
				c0,0.15-0.09,0.31-0.28,0.31h-3.32c-0.25,0-0.42-0.08-0.42-0.27c0-0.24,0.12-0.4,0.37-0.66c1.39-1.42,2.77-2.57,2.77-3.78
				c0-0.78-0.53-1.31-1.31-1.31c-0.82,0-1.2,0.77-1.55,0.77c-0.15,0-0.3-0.14-0.3-0.31c0-0.04,0.01-0.09,0.04-0.13
				c0.31-0.47,0.99-0.92,1.83-0.92C464-141.18,464.83-140.46,464.83-139.3z"/>
			<path class="st2" d="M468.97-138.03c0.15,0,0.25,0.11,0.25,0.29c0,0.17-0.09,0.29-0.25,0.29h-2.86c-0.16,0-0.25-0.12-0.25-0.29
				c0-0.18,0.07-0.29,0.25-0.29H468.97z"/>
			<path class="st2" d="M469.99-137.49v-0.71c0-2.27,0.92-2.99,2.12-2.99c1.19,0,2.09,0.72,2.09,2.99v0.71
				c0,2.17-0.89,3.01-2.09,3.01C470.89-134.48,469.99-135.32,469.99-137.49z M473.51-137.38v-0.91c0-1.65-0.55-2.3-1.39-2.3
				c-0.87,0-1.42,0.66-1.42,2.3v0.91c0,1.63,0.56,2.31,1.42,2.31C472.95-135.07,473.51-135.75,473.51-137.38z"/>
			<path class="st2" d="M478.64-140.47h-2.6v2.14c0.26-0.13,0.67-0.23,0.98-0.23c1.24,0,2.1,0.68,2.1,1.98c0,1.13-0.76,2.1-2.17,2.1
				c-0.8,0-1.45-0.33-1.82-0.8c-0.22-0.32,0.27-0.68,0.51-0.38c0.33,0.34,0.78,0.59,1.3,0.59c0.98,0,1.52-0.68,1.52-1.49
				c0-0.94-0.61-1.43-1.6-1.43c-0.27,0-0.64,0.1-0.92,0.25c-0.21,0.13-0.52,0.07-0.52-0.27v-2.6c0-0.35,0.16-0.45,0.5-0.45h2.71
				c0.18,0,0.27,0.12,0.27,0.31C478.91-140.59,478.82-140.47,478.64-140.47z"/>
			<path class="st2" d="M483.1-138.03c0.15,0,0.25,0.11,0.25,0.29c0,0.17-0.09,0.29-0.25,0.29h-2.86c-0.16,0-0.25-0.12-0.25-0.29
				c0-0.18,0.07-0.29,0.25-0.29H483.1z"/>
			<path class="st2" d="M487.8-139.3c0,1.04-0.69,1.83-1.62,2.78l-1.29,1.32h2.8c0.18,0,0.28,0.15,0.28,0.31
				c0,0.15-0.09,0.31-0.28,0.31h-3.32c-0.25,0-0.42-0.08-0.42-0.27c0-0.24,0.12-0.4,0.37-0.66c1.39-1.42,2.77-2.57,2.77-3.78
				c0-0.78-0.53-1.31-1.31-1.31c-0.82,0-1.2,0.77-1.55,0.77c-0.15,0-0.3-0.14-0.3-0.31c0-0.04,0.01-0.09,0.04-0.13
				c0.31-0.47,0.99-0.92,1.83-0.92C486.96-141.18,487.8-140.46,487.8-139.3z"/>
			<path class="st2" d="M492.74-139.61c0,0.86-0.58,1.36-1.2,1.54c0.74,0.16,1.42,0.66,1.42,1.67c0,1.12-0.85,1.91-2.21,1.91
				c-0.79,0-1.46-0.32-1.82-0.79c-0.21-0.32,0.28-0.68,0.51-0.38c0.32,0.35,0.79,0.58,1.3,0.58c0.99,0,1.54-0.56,1.54-1.36
				c0-0.8-0.65-1.3-1.64-1.3h-0.5c-0.32,0-0.33-0.58,0-0.58h0.48c0.81,0,1.46-0.47,1.46-1.25c0-0.71-0.62-1.03-1.3-1.03
				c-0.54,0-0.93,0.22-1.25,0.57c-0.26,0.28-0.67-0.05-0.5-0.33c0.33-0.46,0.93-0.82,1.77-0.82
				C491.88-141.18,492.74-140.66,492.74-139.61z"/>
		</g>
	</g>
</g>
<g id="Layer_3">
	<g>
		<path d="M46.49,67.49c0.23,0.11,3.94,1.83,8.3,1.83c2.35,0,4.88-0.5,7.16-2.01c1.2-0.79,1.52-2.4,0.73-3.6
			c-0.79-1.2-2.41-1.52-3.6-0.73c-4.06,2.68-10.25-0.13-10.38-0.19c-1.29-0.61-2.84-0.05-3.45,1.24
			C44.63,65.33,45.19,66.88,46.49,67.49z"/>
		<path d="M82.13,67.49c0.23,0.11,3.94,1.83,8.3,1.83c2.35,0,4.88-0.5,7.16-2.01c1.2-0.79,1.52-2.4,0.73-3.6
			c-0.79-1.2-2.41-1.52-3.6-0.73c-4.06,2.69-10.26-0.13-10.38-0.19c-1.29-0.61-2.84-0.05-3.45,1.24
			C80.28,65.33,80.83,66.88,82.13,67.49z"/>
		<path d="M69.27,77.53c1.19,0.77,2.54,1.16,3.92,1.16c1.27,0,2.57-0.33,3.79-0.99c2.66-1.45,4.31-4.12,4.31-6.97
			c0-4.39-3.71-7.97-8.27-7.97c-1.43,0-2.6,1.16-2.6,2.6c0,1.44,1.16,2.6,2.6,2.6c1.69,0,3.07,1.24,3.07,2.77
			c0,0.94-0.63,1.88-1.6,2.41c-0.4,0.22-1.44,0.66-2.41,0.04c-1.2-0.78-2.81-0.44-3.59,0.77C67.72,75.14,68.06,76.75,69.27,77.53z"
			/>
		<path d="M105.83,41.1c0-0.36-0.05-0.99-0.05-0.99s-0.05-0.42-0.09-0.61C101.53,15.87,80.58,0,53.56,0C24.03,0,0,22.95,0,51.17
			c0,7.29,0.98,16.31,4.61,24.67C4.48,76.56,4.4,77.3,4.4,78.05c0,5.84,4.1,10.74,9.54,11.91l0.07,4.77
			c0.02,1.18,0.98,2.13,2.17,2.13h8.69c3.17,4.33,6.64,7.42,12.34,9.19c4.58,1.42,4.72,2.28,4.71,6.39c0,0.23-0.04,0.58-0.04,0.58
			l-0.59,0.25c-5.42,2.14-10.44,5.12-14.92,8.79c-13.32,10.88-21.91,27.8-21.91,46.78v10.98c0,1.26,1.02,2.28,2.28,2.28h1.72h0
			c1.26,0,2.28-1.02,2.28-2.28v-12.57c0-6.38,1.08-12.51,3.06-18.19c3.93-11.28,11.41-20.77,21.01-27
			c3.81-2.47,7.95-4.43,12.34-5.78c1.45,0,2.61,0,3.85-0.01c0.25,0,0.49,0,0.76,0l3.15-0.01c5.62-0.02,11.51-0.04,16.83,0
			c1.36,0.01,2.69,0.02,3.96,0.04c1.99,0.61,3.92,1.37,5.8,2.22h7.12v-1.28c-5.47-2.88-11.23-5.34-11.34-5.4
			c0.12-1.84,0.45-3.52,0.67-4.18c0.59-0.38,1.81-0.69,3.11-1.02c1.01-0.26,2.28-0.58,3.59-1.04c0.98-0.34,1.92-0.74,2.84-1.18
			l-5.09-4.06c-0.78,0.21-1.57,0.41-2.35,0.58c-2.53,0.57-4.92,1.11-6.5,2.69c-1.33,1.33-1.87,4.46-2.09,6.8
			c-0.01,0.05-0.01,0.1-0.01,0.16c-0.01,0.16-0.03,0.33-0.04,0.51l0,0c-5.92-0.05-24.62,0.01-25.05,0.01l0,0
			c-0.09-4.73-1.04-7.86-8.42-10.15c-3.63-1.13-5.96-2.86-8.14-5.5c-0.88-1.06-1.73-2.25-2.63-3.62c-0.56-0.98-0.96-2.05-1.32-3.11
			c-0.27-0.8-0.55-1.6-0.74-2.43c-0.09-0.38-0.16-0.76-0.2-1.15c-0.04-0.35-0.12-0.68-0.36-0.96c-0.26-0.3-0.6-0.48-0.95-0.6
			c-0.38-0.13-0.78-0.16-1.17-0.06c-0.33,0.08-0.65,0.21-0.93,0.45c-0.04,0.03-0.08,0.05-0.11,0.08c-1.33,1.11-2.98,1.74-4.7,1.79
			c-0.07,0-0.14,0.02-0.22,0.02c-1.36,0-2.62-0.39-3.73-1.02c-2.01-1.13-3.47-3.12-3.87-5.5c-0.07-0.44-0.13-0.88-0.13-1.34
			c0-0.92,0.19-1.79,0.47-2.61c1.07-3.05,3.9-5.25,7.27-5.25c1.46,0,2.89,0.42,4.13,1.22c0.27,0.17,0.57,0.27,0.87,0.31
			c0.71,0.1,1.45-0.21,1.93-0.74c0.32-0.35,0.51-0.81,0.74-1.22c0.45-0.83,0.9-1.66,1.35-2.49c0.02-0.03,0.04-0.06,0.05-0.1
			L37.7,44.86h63.36v4.21v2.17v2.17v17.61c0,4.82-1.18,10.19-3.33,15.13c-1.12,2.58-2.5,4.8-4.07,6.74l4.1,3.22
			c1.73-2.23,3.24-4.76,4.47-7.6c2.46-5.68,3.82-11.89,3.82-17.49L105.83,41.1z"/>
		<path d="M91.8,124.81h1.38h3.65h2.29h0.42c-1-0.94-2.02-1.86-3.09-2.73c-1.85-1.51-4.8-3.23-7.83-4.82v1.28h-7.12
			c2.26,1.02,4.43,2.2,6.51,3.55C89.32,122.92,90.58,123.84,91.8,124.81z"/>
		<path d="M130.37,155.58l-0.01-2.24c0-6.28-1.93-9.91-4.09-12.03l2.1-14.5c0.3-2.05-0.26-4.07-1.49-5.61l-0.34-0.4
			c-1.35-1.44-3.27-2.28-5.34-2.28h-19.79v-15.92c0-0.12-0.01-0.23-0.02-0.33c0.07-2.14-0.94-4.2-2.69-5.42l-0.94-0.74l-4.1-3.22
			L80,82.16c-2.91-1.99-6.89-1.25-8.88,1.65c-1.99,2.9-1.25,6.89,1.52,8.79l9.77,7.79l5.09,4.06l1.13,0.9v11.91
			c3.03,1.59,5.98,3.31,7.83,4.82c1.06,0.87,2.09,1.79,3.09,2.73h1.86h17.8c0.85,0,1.6,0.31,2.09,0.88c0.49,0.57,0.7,1.35,0.57,2.2
			l-1.52,10.51h-7.25c-0.9,0-1.76,0.18-2.55,0.49c-1.89,0.72-3.4,2.21-4.13,4.08c-0.31,0.8-0.5,1.66-0.5,2.57
			c0,1.4,0.41,2.75,1.17,3.9c-0.76,1.15-1.17,2.5-1.17,3.9c0,1.4,0.41,2.75,1.17,3.9c-0.76,1.15-1.17,2.5-1.17,3.9
			c0,2.34,0.89,4.18,2.58,5.41c-0.31,0.77-0.47,1.58-0.47,2.39c0,2.7,1.67,5.08,4.06,6.28c0.86,0.43,1.81,0.72,2.81,0.8l-1.15,7.94
			l-0.09,0.59c-0.29,1.99-2.3,3.73-4.31,3.73H84.75c-2.03,0-3.98-1.7-4.25-3.72l-1.56-11.67h8.21c1.26,0,2.28-1.02,2.28-2.28
			s-1.02-2.28-2.28-2.28h-8.82l-0.58-4.34h9.4c1.26,0,2.28-1.02,2.28-2.28s-1.02-2.28-2.28-2.28H77.14l-0.58-4.34h11.52
			c1.26,0,2.28-1.02,2.28-2.28s-1.02-2.28-2.28-2.28H75.95l-0.58-4.35h12.71c1.26,0,2.28-1.02,2.28-2.28s-1.02-2.28-2.28-2.28H74.76
			l-0.58-4.34h13.9c0.2,0,0.37-0.07,0.55-0.11c0.98-0.25,1.73-1.11,1.73-2.17c0-1.06-0.74-1.91-1.73-2.17
			c-0.18-0.05-0.36-0.11-0.55-0.11H73.56l-0.65-4.82c-0.11-0.85,0.1-1.64,0.61-2.22c0.5-0.58,1.25-0.89,2.11-0.89h12.99h2.28h0.89
			c-1.22-0.97-2.48-1.89-3.79-2.73c-2.07-1.35-4.25-2.52-6.51-3.55h-7.84c-2.07,0-4,0.84-5.36,2.28l-0.33,0.38
			c-1.25,1.54-1.82,3.56-1.55,5.62l8.05,60.11c0.57,4.23,4.5,7.67,8.76,7.67h27.59c4.33,0,8.2-3.35,8.82-7.64l1.58-10.92
			c2.25-0.16,4.14-0.94,5.59-2.4C130.42,170.02,130.4,163.65,130.37,155.58z M93.19,118.53v-14.29c0-0.69-0.32-1.35-0.86-1.78
			l-0.61-0.49l-4.48-3.57l-11.89-9.47c-0.83-0.57-1.05-1.71-0.48-2.55c0.37-0.54,0.98-0.82,1.55-0.82c0.32,0,0.62,0.08,0.87,0.26
			l13.16,10.35l4.22,3.32l1.26,0.99c0.04,0.03,0.08,0.06,0.12,0.09c0.53,0.36,0.82,0.97,0.77,1.63c-0.01,0.11-0.01,0.21,0,0.32
			l0.01,16.01H93.19z M122.92,169.73c-0.18,0.18-0.44,0.4-0.85,0.56c-0.4,0.16-0.93,0.28-1.67,0.28h-0.11h-0.56h-1.36h-0.38h-0.56
			h-1.74h-0.2c-1.27-0.08-1.92-0.8-1.93-1.62c-0.03-1.25,1.02-1.52,2-1.59h0.6h1.74h0.43h0.13h1.08c0.24,0,0.46-0.07,0.68-0.14
			c0.22-0.07,0.42-0.18,0.61-0.31c0.58-0.41,0.99-1.06,0.99-1.83c0-0.54-0.21-1.01-0.52-1.4c-0.14-0.18-0.31-0.32-0.5-0.45
			c-0.37-0.25-0.78-0.43-1.26-0.43h-0.42h-0.56h-0.5h-1.24h-1.03c-0.05,0-0.08-0.03-0.13-0.03c-0.93-0.03-1.92,0-2.83-0.21
			c-0.43-0.1-0.86-0.29-1.1-0.68c-0.23-0.37-0.27-0.83-0.16-1.24c0.04-0.15,0.1-0.29,0.19-0.41c0.3-0.44,0.82-0.7,1.36-0.7h4.19
			h0.36h0.53h0.56h1.72c0.01,0,0.02-0.01,0.03-0.01c0.2,0,0.39-0.06,0.58-0.12c0.96-0.27,1.68-1.11,1.68-2.16
			c0-0.81-0.45-1.49-1.09-1.89c-0.17-0.1-0.33-0.19-0.52-0.25c-0.21-0.07-0.43-0.13-0.67-0.13h-1.06h-0.56h-0.88h-1.16h-3.69
			c-0.92,0-1.66-0.73-1.66-1.62c0-0.89,0.75-1.62,1.66-1.62c0.05,0,0.09-0.02,0.14-0.03h2.7h2.48h0.88h0.56h0.58
			c0.46,0,0.86-0.17,1.22-0.4c0.27-0.17,0.48-0.39,0.66-0.66c0.23-0.36,0.4-0.76,0.4-1.22c0-0.23-0.07-0.44-0.13-0.66
			c-0.09-0.31-0.24-0.58-0.44-0.82c-0.4-0.46-0.97-0.77-1.63-0.79c-0.03,0-0.05-0.02-0.08-0.02h-0.48h-0.88h-4.69h-1.44
			c-0.85-0.07-1.52-0.75-1.52-1.59c0-0.89,0.73-1.6,1.64-1.62c0.01,0,0.02-0.01,0.03-0.01h6.45h0.66c0.17,0.04,0.55,0.15,1.02,0.41
			c0.16,0.09,0.33,0.21,0.51,0.34c0.49,0.36,1.02,0.89,1.5,1.66c0.15,0.24,0.3,0.52,0.44,0.82c0.52,1.09,0.94,2.55,1.09,4.5
			c0.04,0.53,0.07,1.09,0.07,1.7l0.01,2.25C124.87,161.84,124.89,167.75,122.92,169.73z"/>
	</g>
	<g>
		<path d="M385.36,67.49c0.23,0.11,3.94,1.83,8.3,1.83c2.35,0,4.88-0.5,7.16-2.01c1.2-0.79,1.52-2.4,0.73-3.6
			c-0.79-1.2-2.41-1.52-3.6-0.73c-4.06,2.68-10.25-0.13-10.38-0.19c-1.29-0.61-2.84-0.05-3.45,1.24
			C383.5,65.33,384.06,66.88,385.36,67.49z"/>
		<path d="M421,67.49c0.23,0.11,3.94,1.83,8.3,1.83c2.35,0,4.88-0.5,7.16-2.01c1.2-0.79,1.52-2.4,0.73-3.6
			c-0.79-1.2-2.41-1.52-3.6-0.73c-4.06,2.69-10.26-0.13-10.38-0.19c-1.29-0.61-2.84-0.05-3.45,1.24
			C419.15,65.33,419.7,66.88,421,67.49z"/>
		<path d="M408.14,77.53c1.19,0.77,2.54,1.16,3.92,1.16c1.27,0,2.57-0.33,3.79-0.99c2.66-1.45,4.31-4.12,4.31-6.97
			c0-4.39-3.71-7.97-8.27-7.97c-1.43,0-2.6,1.16-2.6,2.6c0,1.44,1.16,2.6,2.6,2.6c1.69,0,3.07,1.24,3.07,2.77
			c0,0.94-0.63,1.88-1.6,2.41c-0.4,0.22-1.44,0.66-2.41,0.04c-1.2-0.78-2.81-0.44-3.59,0.77C406.59,75.14,406.93,76.75,408.14,77.53
			z"/>
		<path d="M448.01,153.95c-1.98,0.86-3.58,2.02-5.53,2.42c0.7,3.52,1.08,7.16,1.08,10.9v12.57c0,1.26,1.02,2.28,2.28,2.28h0h1.72
			c1.26,0,2.28-1.02,2.28-2.28v-10.98C449.85,163.7,449.2,158.71,448.01,153.95z"/>
		<g>
			<path d="M413.29,90.52c-0.5,0-1.01-0.19-1.4-0.57c-0.8-0.77-0.82-2.05-0.05-2.84c0.49-0.51,0.61-0.84,0.59-0.95
				c-0.01-0.11-0.17-0.29-0.28-0.37c-0.88-0.64-1.12-1.88-0.5-2.78c0.61-0.9,1.81-1.16,2.72-0.57c0.19,0.12,1.82,1.23,2.06,3.26
				c0.12,1-0.08,2.54-1.7,4.22C414.34,90.32,413.81,90.52,413.29,90.52z"/>
		</g>
		<path class="st5" d="M448.52,139.31c0-0.93,0.26-1.82,0.71-2.63c-1.78-1-2.74-2.69-2.74-4.87c0-1.42,0.5-2.73,1.35-3.75
			c-0.84-1.02-1.35-2.33-1.35-3.75c0-1.42,0.5-2.73,1.35-3.75c-0.84-1.03-1.35-2.33-1.35-3.75c0-3.27,2.68-5.94,5.98-5.94h4.61
			v-5.09h-48.35v26.54c0,6.83,2.4,22.7,24.62,22.7c11.52,0,17.57-4.43,20.67-9.82C450.97,144.85,448.52,142.3,448.52,139.31z"/>
		<path d="M468.15,124.46l-0.01-2.15c0-8.93-4.21-11.95-6.68-12.95c-0.95-0.38-1.64-0.47-1.73-0.48c-0.08-0.01-0.16-0.01-0.24-0.01
			h-2.41h-4.61c-3.3,0-5.98,2.66-5.98,5.94c0,1.42,0.5,2.73,1.35,3.75c-0.84,1.02-1.35,2.33-1.35,3.75c0,1.42,0.5,2.73,1.35,3.75
			c-0.84,1.02-1.35,2.33-1.35,3.75c0,2.18,0.97,3.87,2.74,4.87c-0.45,0.8-0.71,1.7-0.71,2.63c0,2.98,2.45,5.53,5.5,5.89
			c0.24,0.03,0.49,0.05,0.74,0.05h4.02h0.7c2.28,0,4.14-0.71,5.53-2.1C468.2,137.97,468.18,132.01,468.15,124.46z M461.91,138.07
			c-0.27,0.27-0.71,0.6-1.55,0.74c-0.25,0.04-0.54,0.07-0.87,0.07h-3.61h-1.12c-0.94,0-1.86-0.77-1.86-1.56
			c0-0.67,0.89-1.4,1.79-1.53h1.92h0.09c1.21,0,2.19-0.98,2.19-2.19c0-1.09-0.8-1.99-1.84-2.16c-0.11-0.02-0.23-0.04-0.35-0.04
			h-1.48c-0.09-0.01-0.17-0.03-0.26-0.03c-0.01,0-0.03,0-0.04,0c-0.93-0.06-2.23,0-3.17-0.34c-0.69-0.25-0.88-0.52-0.88-1.22
			c0-0.86,0.72-1.56,1.6-1.56h4.61h1.33c1.21,0,2.19-0.98,2.19-2.19s-0.98-2.19-2.19-2.19h-1.33h-4.61c-0.88,0-1.6-0.7-1.6-1.56
			s0.72-1.56,1.6-1.56c0.09,0,0.18-0.02,0.26-0.03h4.34h1.33c1.21,0,2.19-0.98,2.19-2.19c0-1.21-0.98-2.19-2.19-2.19h-1.33h-4.88
			c-0.75-0.13-1.33-0.76-1.33-1.53c0-0.86,0.72-1.56,1.6-1.56h4.61h2.22c0.3,0.07,1.23,0.35,2.16,1.33c1.15,1.21,2.3,3.47,2.3,7.73
			l0.01,2.16C463.79,130.49,463.81,136.16,461.91,138.07z"/>
		<path class="st5" d="M406.54,101.41h10.51c0.45-0.12,0.91-0.23,1.37-0.33c0.43-0.11,1.28-0.31,2.86-0.7
			c10.01-2.43,14.2-11.65,15.32-14.23c2.14-4.94,3.33-10.32,3.33-15.13V53.41v-2.17v-2.17v-4.21h-63.36l-12.15,22.33
			c-0.02,0.03-0.04,0.06-0.05,0.1c-0.45,0.83-0.9,1.66-1.35,2.49c-0.22,0.41-0.42,0.88-0.74,1.22c-0.48,0.53-1.22,0.83-1.93,0.74
			c-0.31-0.04-0.61-0.14-0.87-0.31c-1.24-0.8-2.67-1.22-4.13-1.22c-3.36,0-6.2,2.2-7.27,5.25c-0.29,0.82-0.47,1.69-0.47,2.61
			c0,0.46,0.06,0.9,0.13,1.34c0.41,2.38,1.87,4.36,3.87,5.5c1.11,0.63,2.37,1.02,3.73,1.02c0.07,0,0.14-0.02,0.22-0.02
			c1.71-0.05,3.37-0.67,4.7-1.79c0.04-0.03,0.08-0.05,0.11-0.08c0.28-0.24,0.6-0.37,0.93-0.45c0.39-0.09,0.79-0.06,1.17,0.06
			c0.35,0.12,0.69,0.3,0.95,0.6c0.24,0.27,0.32,0.6,0.36,0.96c0.04,0.39,0.11,0.77,0.2,1.15c0.2,0.82,0.47,1.63,0.74,2.43
			c0.36,1.06,0.77,2.13,1.32,3.11c0.9,1.37,1.75,2.56,2.63,3.62c2.18,2.63,4.51,4.37,8.14,5.5c7.38,2.29,8.33,5.42,8.42,10.15l0,0
			c0.33,0,11.31-0.04,19.12-0.03v-7.51C404.35,102.39,405.33,101.41,406.54,101.41z"/>
		<path class="st5" d="M418.93,100.96c-0.17,0.04-0.34,0.08-0.51,0.12C417.21,101.38,419.51,100.83,418.93,100.96z"/>
		<path class="st5" d="M421.89,128.37c-1.08,0-1.95-0.87-1.95-1.95v-6.19c-2.01,1.14-3.86,2.24-4.72,2.85v14.42h13.33v-14.27
			c-0.55-0.39-1.11-0.78-1.68-1.15c-0.99-0.64-2.01-1.24-3.04-1.81v6.16C423.84,127.5,422.97,128.37,421.89,128.37z"/>
		<path d="M385.23,111.14L385.23,111.14c-0.09-4.73-1.04-7.86-8.42-10.15c-3.63-1.13-5.96-2.86-8.14-5.5
			c-0.88-1.06-1.73-2.25-2.63-3.62c-0.56-0.98-0.96-2.05-1.32-3.11c-0.27-0.8-0.55-1.6-0.74-2.43c-0.09-0.38-0.16-0.76-0.2-1.15
			c-0.04-0.35-0.12-0.68-0.36-0.96c-0.26-0.3-0.6-0.48-0.95-0.6c-0.38-0.13-0.78-0.16-1.17-0.06c-0.33,0.08-0.65,0.21-0.93,0.45
			c-0.04,0.03-0.08,0.05-0.11,0.08c-1.33,1.11-2.98,1.74-4.7,1.79c-0.07,0-0.14,0.02-0.22,0.02c-1.36,0-2.62-0.39-3.73-1.02
			c-2.01-1.13-3.47-3.12-3.87-5.5c-0.07-0.44-0.13-0.88-0.13-1.34c0-0.92,0.19-1.79,0.47-2.61c1.07-3.05,3.9-5.25,7.27-5.25
			c1.46,0,2.89,0.42,4.13,1.22c0.27,0.17,0.57,0.27,0.87,0.31c0.71,0.1,1.45-0.21,1.93-0.74c0.32-0.35,0.51-0.81,0.74-1.22
			c0.45-0.83,0.9-1.66,1.35-2.49c0.02-0.03,0.04-0.06,0.05-0.1l12.15-22.33h63.36v4.21v2.17v2.17v17.61
			c0,4.82-1.18,10.19-3.33,15.13c-1.12,2.58-5.32,11.8-15.32,14.23c-1.58,0.38-2.43,0.59-2.86,0.7c0.17-0.04,0.34-0.08,0.51-0.12
			c0.58-0.13-1.72,0.42-0.51,0.12c-0.47,0.11-0.92,0.22-1.37,0.33h14.11c5.63-4.47,8.96-10.63,9.94-12.9
			c2.46-5.68,3.82-11.89,3.82-17.49L444.7,41.1c0-0.36-0.05-0.99-0.05-0.99s-0.05-0.42-0.09-0.61C440.4,15.87,419.45,0,392.43,0
			c-29.53,0-53.56,22.95-53.56,51.17c0,7.29,0.98,16.31,4.61,24.67c-0.13,0.72-0.21,1.46-0.21,2.21c0,5.84,4.1,10.74,9.54,11.91
			l0.07,4.77c0.02,1.18,0.98,2.13,2.17,2.13h8.69c3.17,4.33,6.64,7.42,12.34,9.19c4.58,1.42,4.72,2.28,4.71,6.39
			c0,0.23-0.04,0.58-0.04,0.58l-0.59,0.25c-5.42,2.14-10.44,5.12-14.92,8.79c-13.32,10.88-21.91,27.8-21.91,46.78v10.98
			c0,1.26,1.02,2.28,2.28,2.28h1.72h0c1.26,0,2.28-1.02,2.28-2.28v-12.57c0-6.38,1.08-12.51,3.06-18.19
			c3.93-11.28,11.41-20.77,21.01-27c3.81-2.47,7.95-4.43,12.34-5.78c1.45,0,2.61,0,3.85-0.01c0.25,0,0.49,0,0.76,0l3.15-0.01
			c3.49-0.01,7.07-0.02,10.57-0.02v-5.14C396.54,111.1,385.56,111.14,385.23,111.14z"/>
		<path d="M459.27,99.41h-28.11h-14.11h-10.51c-1.21,0-2.19,0.98-2.19,2.19v7.51v5.14v16.08c0,6.35,2.09,27.08,29,27.08
			c15.19,0,22.21-7.03,25.43-14.16h-4.02c-0.25,0-0.5-0.02-0.74-0.05c-3.1,5.39-9.15,9.82-20.67,9.82
			c-22.22,0-24.62-15.88-24.62-22.7v-16.07v-5.14v-5.32h2.51h8.71v0.86v6.91v2.22c-1,0.54-1.87,1.03-2.66,1.47
			c-5.93,3.36-5.96,4-5.96,5.02v15.93c0,1.76,1.44,3.2,3.2,3.2h14.72c1.76,0,3.2-1.44,3.2-3.2v-13.39v-2.54
			c0-1.15-0.03-1.82-8.61-6.49v-0.37v-9.61h33.24v5.09h2.41c0.08,0,0.16,0,0.24,0.01c0.1,0.01,0.79,0.1,1.73,0.48v-7.77
			C461.46,100.39,460.48,99.41,459.27,99.41z M428.56,135.5h-13.33v-14.42c0.86-0.61,2.71-1.71,4.72-2.85v6.19
			c0,1.08,0.87,1.95,1.95,1.95c1.08,0,1.95-0.87,1.95-1.95v-6.16c1.04,0.57,2.05,1.17,3.04,1.81c0.57,0.37,1.12,0.76,1.68,1.15
			V135.5z"/>
	</g>
	<g>
		<path class="st6" d="M70.2,444.04c2.73-1.32,4.33-3.45,4.61-6.5c0.29-3.12-0.84-5.65-3.36-7.5c-1.75-1.29-3.77-1.75-5.92-1.75
			c-3.61,0-7.22,0-10.83,0c-0.14,0-0.28,0.02-0.42,0.03c0,1.93,0,3.82,0,5.75c0.21,0,0.38,0,0.56,0c3.48,0,6.96,0,10.44,0
			c0.28,0,0.55,0,0.83,0.02c1.22,0.08,2.26,1.03,2.4,2.16c0.17,1.35-0.54,2.49-1.81,2.86c-0.38,0.11-0.8,0.14-1.2,0.14
			c-3.57,0.01-7.13,0.01-10.7,0.01c-0.17,0-0.34,0-0.52,0c0,5.27,0,10.47,0,15.69c2.08,0,4.14,0,6.22,0c0-3.31,0-6.58,0-9.91
			c0.8,0,1.54,0.02,2.28-0.01c0.3-0.01,0.47,0.1,0.65,0.33c2.39,3.12,4.79,6.23,7.18,9.34c0.16,0.21,0.32,0.29,0.58,0.29
			c2.24-0.01,4.48-0.01,6.73-0.01c0.11,0,0.22,0,0.42,0c-2.79-3.66-5.53-7.25-8.28-10.84C70.12,444.08,70.16,444.06,70.2,444.04z"/>
		<path class="st6" d="M-64.49,428.35c-3.49-0.17-6.99-0.06-10.48-0.07c-0.08,0-0.17,0.02-0.27,0.03c0,5.24,0,10.83,0,16.07
			c2.07,0,4.12,0,6.2,0c0-3.31,0-6.96,0-10.31c1.13,0,2.19-0.02,3.24,0.01c0.58,0.02,1.17,0.07,1.73,0.2
			c4.6,1.09,7.11,5.87,5.28,10.23c-1.25,2.99-3.65,4.48-6.84,4.66c-1.47,0.09-2.94,0.02-4.41,0.02c-0.15,0-0.31,0-0.46,0
			c0,1.95,0,3.85,0,5.77c1.55,0,3.06,0.04,4.57-0.01c1.19-0.05,2.39-0.11,3.55-0.35c7.11-1.43,11.67-8.1,10.47-15.26
			C-52.93,433.18-58.22,428.67-64.49,428.35z"/>
		<path class="st6" d="M-40.33,444.39c3.77,0,7.5,0,11.25,0c0-1.94,0-3.83,0-5.73c-3.77,0-7.52,0-11.27,0v-4.63
			c4.28,0,8.55,0,12.82,0c0-1.92,0-3.81,0-5.71c-6.37,0-12.7,0-19.04,0c0,1.78,0,3.53,0,5.28c0,0.14,0,0.29,0,0.43v4.63c0,0,0,0,0,0
			c0,5.45,0,10.87,0,16.3c6.36,0,12.7,0,19.05,0c0-1.92,0-3.82,0-5.76c-4.29,0-8.54,0-12.82,0C-40.33,447.58-40.33,446-40.33,444.39
			z"/>
		<path class="st6" d="M35.6,445.63c0-0.42,0-0.83,0-1.25c3.77,0,7.51,0,11.25,0c0-1.94,0-3.83,0-5.72c-3.76,0-7.51,0-11.25,0v-4.63
			c4.28,0,8.54,0,12.81,0c0-1.92,0-3.81,0-5.71c-6.37,0-12.7,0-19.06,0c0,1.92,0,3.8,0,5.71c0,0,0.01,0,0.01,0v4.63
			c0,1.02,0,2.03,0,3.05c0,4.42,0,8.84,0,13.25c6.37,0,12.7,0,19.05,0c0-1.92,0-3.82,0-5.75c-4.28,0-8.53,0-12.81,0
			C35.6,448,35.6,446.82,35.6,445.63z"/>
		<path class="st6" d="M-4.84,440.93c-1-0.72-2.09-1.29-3.24-1.78l-4.87-1.67c-0.57-0.29-1.14-0.52-1.65-0.85
			c-0.85-0.56-0.99-1.48-0.33-2.25c0.31-0.36,0.74-0.68,1.17-0.87c2.36-1.02,4.92-0.04,6.03,2.27c0.07,0.15,0.14,0.3,0.22,0.47
			c1.87-0.92,3.71-1.82,5.6-2.74c-0.33-0.59-0.6-1.16-0.95-1.67c-1.79-2.65-4.33-4.01-7.47-4.31c-3.28-0.31-6.27,0.4-8.86,2.5
			c-2.87,2.32-3.29,5.83-1.87,8.65c1.15,2.27,3.31,3.28,5.57,4.21l4.87,1.61c0.53,0.28,1.03,0.51,1.51,0.78
			c0.56,0.32,0.99,0.76,1.08,1.44c0.16,1.16-0.38,2.17-1.5,2.75c-0.83,0.43-1.74,0.57-2.66,0.58c-2.04,0.03-3.56-0.85-4.48-2.68
			c-0.25-0.5-0.41-1.05-0.64-1.63c-1.82,0.66-3.65,1.32-5.48,1.98c-0.25,0.09-0.21,0.22-0.16,0.41c0.76,3.04,2.54,5.24,5.41,6.54
			c2.09,0.95,4.3,1.21,6.56,1.09c2.47-0.14,4.75-0.9,6.63-2.55c2.5-2.2,3.43-4.95,2.59-8.21C-2.22,443.22-3.4,441.96-4.84,440.93z"
			/>
		<path class="st6" d="M17.17,439.14l-4.87-1.66c-0.58-0.3-1.14-0.52-1.63-0.84c-0.86-0.57-0.99-1.49-0.34-2.29
			c0.18-0.22,0.41-0.42,0.65-0.57c1.78-1.15,4.49-0.74,5.83,0.91c0.38,0.47,0.66,1.01,1.01,1.55c1.81-0.88,3.64-1.78,5.5-2.69
			c-0.82-1.96-2.09-3.5-3.88-4.57c-2.54-1.52-5.31-1.81-8.17-1.3c-2.32,0.41-4.36,1.39-6.01,3.12c-2.45,2.58-2.24,6.49-0.52,8.76
			c0.93,1.22,2.19,2.03,3.55,2.68c0.48,0.23,0.97,0.43,1.48,0.65l4.87,1.61c0.55,0.28,1.05,0.51,1.52,0.79
			c0.55,0.33,0.98,0.77,1.07,1.45c0.15,1.15-0.38,2.15-1.48,2.72c-0.86,0.45-1.79,0.59-2.74,0.59c-2.04,0-3.54-0.89-4.45-2.73
			c-0.24-0.49-0.4-1.02-0.6-1.55c-0.02,0-0.06,0-0.1,0.02c-1.79,0.64-3.58,1.29-5.37,1.93c-0.23,0.08-0.25,0.19-0.2,0.39
			c0.75,3.01,2.49,5.22,5.31,6.52c2.62,1.2,5.38,1.44,8.19,0.95c2.49-0.43,4.64-1.55,6.27-3.56c2.08-2.58,2.32-6.33,0.53-8.91
			C21.26,441.16,19.27,440.1,17.17,439.14z"/>
		<path class="st6" d="M78.46,434.04c2.37,0,4.73,0,7.09,0v5.24c0,0.85,0,1.7,0,2.55c0,4.38,0,8.75,0,13.11c2.07,0,4.12,0,6.16,0
			c0-4.76,0-9.5,0-14.26c0-0.47,0-0.94,0-1.41v-5.24c2.36,0,4.72,0,7.09,0c0-1.91,0-3.8,0-5.73c-6.8,0-13.56,0-20.33,0
			C78.46,430.23,78.46,432.13,78.46,434.04z"/>
		<path class="st6" d="M155.44,436.12c-0.46-3.97-3.42-7.34-7.28-8.31c-0.54-0.14-1.09-0.2-1.68-0.31
			c-2.62-0.19-3.71,0.04-3.71,0.04c-4.89,0.54-8.63,3.82-8.7,9.24c-0.07,4.88,2.93,8.73,8.68,9.51c0.02-0.07,0.04-0.11,0.04-0.16
			c0-1.83,0.01-3.67-0.01-5.5c0-0.15-0.17-0.35-0.32-0.44c-2.65-1.62-2.66-4.95,0.01-6.54c0,0,2.07-1.25,4.23-0.13
			c2.16,1.12,2.6,3.22,2.31,5.47c-0.27,2.09-1.07,4-2.19,5.79c-1.61,2.58-3.8,4.62-6.18,6.47c-0.13,0.1-0.25,0.21-0.3,0.25
			c1.46,1.51,2.89,2.98,4.41,4.54c1.43-1.38,2.85-2.66,4.18-4.05c2.26-2.36,4.16-4.98,5.35-8.06
			C155.24,441.42,155.76,438.83,155.44,436.12z"/>
		<path class="st6" d="M127.65,440.58c0.07-0.05,0.2-0.13,0.3-0.23c1.29-1.27,2.11-2.78,2.23-4.6c0.15-2.39-0.75-4.35-2.54-5.9
			c-1.62-1.42-3.42-1.93-5.69-2.11c-1.1-0.1-7.3-0.48-11.73,4.93c1.4,1.14,2.78,2.25,4.18,3.39c0.07-0.08,0.12-0.12,0.15-0.16
			c0.92-1.18,2.07-2.03,3.52-2.43c0,0,2.54-0.74,4.12,0.02c0.55,0.24,0.67,0.38,0.91,0.65c0.69,0.76,0.82,1.66,0.45,2.6
			c-0.4,1.02-1.21,1.59-2.27,1.64c-1.51,0.08-3.03,0.05-4.54,0.06c-0.17,0-0.34,0.02-0.51,0.03c0,1.74,0,3.44,0,5.17
			c0.18,0,0.34,0,0.5,0c1.28,0,2.56-0.03,3.84,0.01c0.6,0.02,1.23,0.09,1.8,0.26c1.64,0.49,2.6,2.09,2.21,3.61
			c-0.23,0.89-0.82,1.45-1.58,1.81c-1.89,0.82-3.53,0.72-4.84,0.27c-0.33-0.15-0.67-0.27-0.99-0.43c-0.13-0.07-0.25-0.13-0.37-0.21
			c-1.05-0.63-1.76-1.4-2.08-1.78c-0.07-0.08-0.13-0.16-0.19-0.24c-1.52,1.13-3.01,2.24-4.52,3.36c1.57,2.53,3.72,4.08,6.36,4.82
			c0.01,0,0.01,0.01,0.02,0.01c0.05,0.01,0.09,0.02,0.14,0.04c0.01,0,0.03,0.01,0.04,0.01c0.63,0.17,1.28,0.28,1.91,0.36
			c0.01,0,0.02,0,0.03,0c0,0,0,0,0,0c1.63,0.19,3.16,0.11,4.11,0.01c0.24-0.02,0.49-0.05,0.73-0.09c0.09-0.01,0.15-0.02,0.19-0.03
			c0.02,0,0.03,0,0.05-0.01c0.02,0,0.03,0,0.03,0l0,0c2.06-0.36,4.11-1.35,5.63-3.11c2.44-2.81,2.57-6.99,0.22-9.87
			C128.94,441.78,128.3,441.23,127.65,440.58z"/>
	</g>
	<g>
		<path class="st6" d="M399.22,444.2c-2.01,0-3.97,0-6.1,0c2.63,2.72,5.14,5.33,7.7,7.98c-1.55,1.38-3.05,2.71-4.6,4.09
			c-1.64-1.71-3.25-3.38-5.07-5.28c-0.14,0.25-0.22,0.52-0.39,0.69c-2.14,2.22-4.63,3.81-7.71,4.42
			c-5.16,1.02-10.18-2.08-11.34-7.09c-0.86-3.72,0.65-6.61,3.16-8.92c1.47,1.35,2.91,2.67,4.37,4c-0.23,0.26-0.38,0.45-0.55,0.61
			c-1.68,1.6-0.91,4.57,1.7,5.18c2.44,0.57,5.39-0.7,6.85-2.95c-2.06-2.13-4.11-4.27-6.18-6.4c-0.99-1.02-1.83-2.12-2.3-3.47
			c-1.19-3.46,0.25-7.02,3.55-8.63c3.75-1.83,8.21-0.84,11.21,2.32c-1.18,1.6-2.36,3.2-3.57,4.84c-0.55-0.48-1.07-0.95-1.61-1.38
			c-0.65-0.52-1.39-0.79-2.25-0.71c-1.24,0.12-1.75,1.18-1.04,2.19c0.19,0.27,0.42,0.51,0.65,0.75c1.95,2.04,3.91,4.08,5.87,6.12
			c0.14,0.15,0.3,0.29,0.54,0.52c0-1.52,0-2.93,0-4.38c2.4,0,4.74,0,7.12,0C399.22,440.5,399.22,442.3,399.22,444.2z"/>
		<path class="st6" d="M435.02,441.08c1.4,0.93,2.46,2.08,2.98,3.66c1.42,4.32-1.38,9.28-5.9,10.43c-0.69,0.18-1.39,0.36-2.09,0.37
			c-2.91,0.04-5.83,0.02-8.78,0.02c0-1.96,0-3.92,0-5.95c2.12,0,4.2,0.01,6.28-0.01c0.66-0.01,1.33-0.03,1.98-0.14
			c1.37-0.25,2.27-1.29,2.25-2.54c-0.01-1.2-0.86-2.15-2.21-2.42c-0.48-0.1-0.99-0.14-1.48-0.14c-2.73-0.01-5.46-0.01-8.19-0.01
			c-1.16,0-2.32,0-3.54,0c0-5.51,0-10.98,0-16.49c0.22-0.01,0.42-0.04,0.63-0.04c3.8,0,7.6-0.01,11.4,0c2.34,0.01,4.5,0.57,6.3,2.17
			c2.77,2.46,3.42,7.03,1.38,9.9C435.75,440.3,435.39,440.65,435.02,441.08z M422.8,438.4c1.22,0,2.36,0.02,3.49-0.01
			c0.8-0.02,1.62-0.01,2.4-0.15c1.34-0.25,1.93-0.97,1.93-2.15c0-1.17-0.6-2.02-1.94-2.12c-1.94-0.15-3.91-0.04-5.89-0.04
			C422.8,435.35,422.8,436.84,422.8,438.4z"/>
		<path class="st6" d="M525.28,433.83c0,0,0-3.99,0-5.97c0.23-0.01,0.41-0.03,0.6-0.03c3.87,0,7.74-0.06,11.61,0.02
			c3.32,0.06,6.11,1.31,7.97,4.18c2.69,4.16,1.21,9.66-3.17,11.96c-0.17,0.09-0.33,0.18-0.56,0.31c2.85,3.74,5.69,7.46,8.63,11.32
			c-1.16,0-2.17,0-3.17,0c-1.31,0-2.61-0.03-3.92,0.01c-0.54,0.02-0.86-0.16-1.18-0.58c-2.37-3.12-4.78-6.21-7.15-9.32
			c-0.27-0.36-0.54-0.51-1-0.51c-0.68,0-1.37,0.01-2.16,0.01c0,3.46,0,6.88,0,10.34c-2.22,0-4.34,0-6.51,0c0-5.44,0-16.31,0-16.31
			s8.03-0.01,11.66-0.06c0.68-0.01,1.42-0.2,2.03-0.51c0.91-0.47,1.36-1.64,1.15-2.63c-0.24-1.13-0.95-1.84-2.07-2.1
			c-0.46-0.1-0.94-0.13-1.41-0.13C533.12,433.83,525.28,433.83,525.28,433.83z"/>
		<path class="st6" d="M469.6,455.61c-2.22,0-4.43,0.01-6.63-0.02c-0.19,0-0.45-0.3-0.54-0.52c-0.76-1.81-1.5-3.63-2.22-5.46
			c-0.16-0.41-0.37-0.57-0.83-0.57c-2.75,0.02-5.51,0.02-8.26,0c-0.43,0-0.62,0.14-0.77,0.53c-0.78,2.01-1.6,4-2.41,6.01
			c-2.31,0-4.61,0-6.98,0c0.08-0.24,0.13-0.44,0.2-0.63c1.53-3.77,3.06-7.54,4.58-11.32c0.18-0.44,0.4-0.6,0.88-0.59
			c3.61,0.02,7.21,0.01,10.9,0.01c-0.08-0.25-0.13-0.44-0.21-0.63c-0.78-1.93-1.59-3.85-2.34-5.79c-0.18-0.47-0.43-0.58-0.89-0.57
			c-1.68,0.03-3.37,0.01-5.16,0.01c0.09-0.28,0.14-0.49,0.22-0.7c0.94-2.33,1.9-4.65,2.82-6.98c0.18-0.44,0.39-0.6,0.88-0.59
			c1.66,0.03,3.32,0,4.98,0.03c0.22,0,0.56,0.18,0.63,0.36c3.7,9.05,7.39,18.1,11.07,27.16C469.58,455.42,469.58,455.5,469.6,455.61
			z"/>
		<path class="st6" d="M242.97,427.31c0.93,0.14,1.84,0.36,2.75,0.68c0.4,0.14,0.8,0.31,1.19,0.49c0.89,0.42,1.73,0.93,2.52,1.51
			c0.81,0.6,1.56,1.29,2.23,2.05c0.69,0.78,1.3,1.63,1.81,2.54c0.53,0.95,0.95,1.95,1.26,2.99c0.33,1.11,0.52,2.25,0.58,3.41
			c0.01,0.13,0.01,0.27,0.02,0.4c0.23,7.23-5.18,13.72-12.38,14.76c0-0.86-0.01-4.67-0.01-5.75c0-0.54,0.15-0.76,0.66-0.96
			c3.02-1.22,4.92-4.21,4.94-7.66c0.02-3.47-1.88-6.48-4.9-7.76c0,0-1.48-0.71-3.65-0.55c-2.07,0.15-3.41,0.97-3.41,0.97
			c-3.23,1.71-4.49,4.66-4.15,8.22c0.31,3.23,2,5.55,5.02,6.86c0.21,0.09,0.49,0.35,0.49,0.54c0.04,2.01,0.02,3.89,0.02,6.1
			c-7.12-1.05-12.41-7.26-12.39-14.46c0-1.06,0.12-2.13,0.36-3.17c0.23-1.02,0.58-2.02,1.02-2.97c0.44-0.94,0.98-1.83,1.61-2.66
			c0.62-0.82,1.33-1.58,2.11-2.26c0.78-0.68,1.63-1.27,2.54-1.77c1.23-0.67,2.56-1.16,3.94-1.43c1.43-0.3,2.9-0.36,4.35-0.28
			C241.98,427.19,242.48,427.24,242.97,427.31z"/>
		<path class="st6" d="M211.16,449.89c2.48,0.41,4.75-0.19,6.76-1.73c0.38-0.29,0.75-0.58,1.18-0.93c1.32,1.64,2.64,3.27,4.03,4.98
			c-4.32,3.74-9.21,4.97-14.67,3.56c-5.53-1.43-10.73-6.04-10.57-14.17c0.13-6.71,4.62-11.66,9.58-13.59
			c5.11-1.99,11.93-0.57,15.61,3.27c-1.33,1.64-2.64,3.26-3.96,4.9c-0.66-0.48-1.27-0.96-1.91-1.38
			c-3.64-2.38-12.18-1.44-12.41,7.07C204.7,445.39,206.85,449.41,211.16,449.89z"/>
		<path class="st6" d="M485.54,442.33c-0.28-0.35-0.56-0.55-0.94-0.63c0.35-0.06,0.59-0.23,0.84-0.54c1.35-1.75,4.93-6.4,6.3-8.13
			c1.33-1.69,2.67-3.38,4.11-5.2c-2.41,0-4.64,0.03-6.86-0.02c-0.62-0.01-0.99,0.19-1.36,0.66c-2.16,2.76-6.01,7.73-8.61,11.05
			c0-3.89,0-7.77,0-11.66c-2.16,0-4.27,0-6.42,0c0,9.25,0,18.48,0,27.73c2.15,0,4.26,0,6.42,0c0-3.92,0-7.83,0-11.74
			c0.82,1.03,1.61,2.04,2.41,3.04c1.37,1.73,4.95,6.39,6.3,8.13c0.3,0.39,0.61,0.57,1.12,0.56c2.27-0.03,4.54-0.01,7-0.01
			c-0.28-0.37-0.46-0.62-0.66-0.87C492.7,451.56,488.01,445.49,485.54,442.33z"/>
		<path class="st6" d="M280.54,433.79c0-2,0-3.95,0-5.92c-6.64,0-13.22,0-19.85,0c0,1.26,0.01,25,0.01,27.71c2.16,0,4.29,0,6.5,0
			c0-2.71,0-9.98,0-10.93c3.95,0,7.82,0,11.74,0c0-2.05,0-4,0-5.97c-3.92,0-7.83,0-11.74,0v-4.89
			C271.65,433.79,276.1,433.79,280.54,433.79z"/>
		<path class="st6" d="M305.48,433.79c0-2,0-3.95,0-5.92c-6.63,0-13.22,0-19.84,0c0,1.26,0,10.81,0,10.81c0,2.94,0,14.19,0,16.89
			c2.17,0,4.3,0,6.5,0c0-3.66,0-7.28,0-10.96c3.97,0,7.85,0,11.72,0c0-2.02,0-3.98,0-5.93c-3.92,0-7.82,0-11.72,0v-4.89
			C296.59,433.79,301.03,433.79,305.48,433.79z"/>
		<path class="st6" d="M317.08,449.6c0-1.67,0-3.25,0-4.98c3.94,0,7.84,0,11.72,0c0-2.04,0-4,0-5.94c-3.92,0-7.82,0-11.72,0v-4.89
			c4.46,0,8.9,0,13.35,0c0-2,0-3.95,0-5.92c-6.64,0-13.22,0-19.85,0c0,1.26,0,2.5,0,3.75c0,0.72,0,1.43,0,2.16v4.89
			c0,2.94,0,5.87,0,8.8c0,2.7,0,5.39,0,8.08c6.65,0,13.25,0,19.85,0c0-2,0-3.93,0-5.96C325.96,449.6,321.53,449.6,317.08,449.6z"/>
		<path class="st6" d="M356.37,433.77c0-2,0-3.93,0-5.89c-6.64,0-13.24,0-19.86,0c0,1.26,0,2.5,0,3.74c0,0.72,0,1.43,0,2.15v4.9
			c0,2.94,0,5.87,0,8.8c0,2.69,0,5.39,0,8.09c6.64,0,13.24,0,19.86,0c0-1.99,0-3.93,0-5.97c-4.49,0-8.9,0-13.32,0
			c0-1.68,0-3.3,0-4.98c3.94,0,7.82,0,11.7,0c0-2.02,0-3.97,0-5.94c-3.92,0-7.82,0-11.73,0v-4.9
			C347.47,433.77,351.92,433.77,356.37,433.77z"/>
		<path class="st6" d="M505.88,449.59c0-1.68,0-3.3,0-4.98c3.94,0,7.82,0,11.7,0c0-2.02,0-3.97,0-5.94c-3.92,0-7.83,0-11.73,0v-4.9
			c4.46,0,8.91,0,13.36,0c0-2,0-3.93,0-5.91c-6.63,0-13.22,0-19.86,0c0,1.27,0,2.52,0,3.76c0,0.72,0,1.43,0,2.15v13.7h0.01
			c0,2.69,0,5.39,0,8.09c6.63,0,13.24,0,19.86,0c0-1.99,0-3.93,0-5.97C514.72,449.59,510.31,449.59,505.88,449.59z"/>
		<path class="st7" d="M571.52,427.95c-0.81,0-1.62-0.03-2.42,0.02c-0.23,0.01-0.55,0.18-0.66,0.37c-2.05,3.52-4.08,7.05-6.12,10.57
			c0,0,0,0,0-0.01c0,0,0,0,0,0.01c-2.04-3.53-4.07-7.05-6.12-10.57c-0.11-0.19-0.43-0.36-0.66-0.37c-0.8-0.05-1.61-0.02-2.42-0.02
			c-1.48,0-2.97,0-4.55,0c0.17,0.32,0.29,0.54,0.42,0.76c3.31,5.7,6.64,11.39,9.93,17.1c0.06,0.1,0.1,0.2,0.15,0.31v9.57h0.26
			c1.01,0,2.01,0,3,0s1.98,0,3,0h0.26v-9.57c0.04-0.11,0.09-0.21,0.15-0.31c3.29-5.71,6.61-11.4,9.93-17.1
			c0.13-0.22,0.25-0.45,0.42-0.76C574.49,427.95,573,427.95,571.52,427.95z"/>
	</g>
	<g>
		<path d="M60.48,314.05c0,3.34,0,6.61,0,9.91c-2.09,0-4.14,0-6.22,0c0-5.22,0-10.42,0-15.69c0.18,0,0.35,0,0.52,0
			c3.57,0,7.13,0,10.7-0.01c0.4,0,0.82-0.03,1.2-0.14c1.28-0.37,1.98-1.51,1.81-2.86c-0.14-1.13-1.18-2.08-2.4-2.16
			c-0.28-0.02-0.55-0.02-0.83-0.02c-3.48,0-6.96,0-10.44,0c-0.17,0-0.35,0-0.56,0c0-1.93,0-3.82,0-5.75
			c0.14-0.01,0.28-0.03,0.42-0.03c3.61,0,7.22,0,10.83,0c2.15,0,4.17,0.46,5.92,1.75c2.53,1.86,3.65,4.38,3.36,7.5
			c-0.28,3.04-1.88,5.18-4.61,6.5c-0.04,0.02-0.07,0.04-0.16,0.09c2.75,3.6,5.49,7.18,8.28,10.84c-0.2,0-0.31,0-0.42,0
			c-2.24,0-4.48,0-6.73,0.01c-0.26,0-0.42-0.08-0.58-0.29c-2.39-3.12-4.79-6.23-7.18-9.34c-0.18-0.23-0.35-0.34-0.65-0.33
			C62.02,314.07,61.28,314.05,60.48,314.05z"/>
		<path d="M-69.04,303.1c0,3.36,0,6.64,0,9.95c-2.09,0-4.13,0-6.2,0c0-5.24,0-10.46,0-15.71c0.1-0.01,0.19-0.03,0.27-0.03
			c3.49,0.01,7-0.11,10.48,0.07c6.27,0.31,11.55,4.83,12.58,11c1.19,7.16-3.36,13.84-10.47,15.26c-1.16,0.23-2.36,0.3-3.55,0.35
			c-1.51,0.06-3.03,0.01-4.57,0.01c0-1.92,0-3.81,0-5.77c0.15,0,0.31,0,0.46,0c1.47,0,2.95,0.06,4.41-0.02
			c3.19-0.19,5.59-1.68,6.84-4.66c1.83-4.36-0.68-9.15-5.28-10.23c-0.56-0.13-1.15-0.19-1.73-0.2
			C-66.85,303.08-67.91,303.1-69.04,303.1z"/>
		<path d="M-27.52,318.22c0,1.94,0,3.84,0,5.76c-6.36,0-12.69,0-19.05,0c0-5.43,0-10.85,0-16.3c5.82,0,11.64,0,17.49,0
			c0,1.9,0,3.79,0,5.73c-3.75,0-7.48,0-11.25,0c0,1.62,0,3.19,0,4.81C-36.06,318.22-31.8,318.22-27.52,318.22z"/>
		<path d="M35.6,318.24c4.29,0,8.54,0,12.81,0c0,1.93,0,3.83,0,5.75c-6.35,0-12.68,0-19.05,0c0-5.43,0-10.85,0-16.3
			c5.81,0,11.63,0,17.48,0c0,1.89,0,3.79,0,5.72c-3.74,0-7.48,0-11.25,0C35.6,315.03,35.6,316.6,35.6,318.24z"/>
		<path d="M122.15,324.59c0-0.24,0-0.46,0-0.67c0-1.54,0.02-3.09-0.01-4.63c-0.01-0.42,0.1-0.63,0.51-0.79
			c0.93-0.35,1.68-0.94,1.94-1.97c0.39-1.52-0.57-3.11-2.21-3.61c-0.58-0.17-1.2-0.24-1.8-0.26c-1.28-0.04-2.56-0.01-3.84-0.01
			c-0.16,0-0.31,0-0.5,0c0-1.73,0-3.43,0-5.17c0.17-0.01,0.34-0.02,0.51-0.03c1.51-0.02,3.03,0.02,4.54-0.06
			c1.06-0.06,1.88-0.62,2.27-1.64c0.36-0.94,0.24-1.84-0.45-2.6c-0.25-0.27-0.62-0.42-0.91-0.65c-0.12-0.09-0.28-0.23-0.28-0.35
			c-0.02-1.73-0.01-3.47-0.01-5.2c0-0.06,0.02-0.11,0.04-0.19c2.13,0.11,4.07,0.69,5.69,2.11c1.78,1.56,2.69,3.52,2.54,5.9
			c-0.12,1.83-0.94,3.33-2.23,4.6c-0.1,0.1-0.23,0.18-0.3,0.23c0.65,0.65,1.29,1.2,1.82,1.85c2.35,2.88,2.22,7.06-0.22,9.87
			C127.36,323.5,124.67,324.51,122.15,324.59z"/>
		<path d="M144.75,325.07c-1.52-1.56-2.94-3.04-4.41-4.54c0.04-0.04,0.17-0.15,0.3-0.25c2.38-1.85,4.57-3.89,6.18-6.47
			c1.11-1.78,1.92-3.69,2.19-5.79c0.29-2.24-0.22-4.2-2.31-5.47c-0.1-0.06-0.2-0.22-0.2-0.34c-0.01-1.86-0.01-3.72-0.01-5.69
			c0.59,0.11,1.14,0.18,1.68,0.31c3.86,0.97,6.81,4.34,7.28,8.31c0.32,2.71-0.2,5.3-1.17,7.81c-1.19,3.08-3.09,5.69-5.35,8.06
			C147.6,322.4,146.17,323.69,144.75,325.07z"/>
		<path d="M-17.31,314.76c0.22,0.58,0.38,1.13,0.64,1.63c0.93,1.83,2.45,2.7,4.48,2.68c0.92-0.01,1.83-0.14,2.66-0.58
			c1.12-0.58,1.66-1.59,1.5-2.75c-0.1-0.69-0.53-1.12-1.08-1.44c-0.47-0.28-0.97-0.51-1.51-0.78c0.84-1.76,1.68-3.53,2.54-5.33
			c1.15,0.49,2.24,1.06,3.24,1.78c1.44,1.03,2.62,2.29,3.07,4.05c0.84,3.26-0.09,6.01-2.59,8.21c-1.88,1.66-4.16,2.41-6.63,2.55
			c-2.26,0.13-4.47-0.14-6.56-1.09c-2.87-1.3-4.65-3.5-5.41-6.54c-0.05-0.18-0.09-0.32,0.16-0.41
			C-20.96,316.09-19.13,315.42-17.31,314.76z"/>
		<path d="M7.96,314.78c0.2,0.52,0.36,1.06,0.6,1.55c0.9,1.84,2.41,2.74,4.45,2.73c0.95,0,1.89-0.14,2.74-0.59
			c1.09-0.58,1.63-1.58,1.48-2.72c-0.09-0.69-0.52-1.13-1.07-1.45c-0.47-0.28-0.98-0.51-1.52-0.79c0.84-1.77,1.69-3.54,2.55-5.34
			c2.1,0.96,4.09,2.01,5.42,3.94c1.79,2.58,1.55,6.34-0.53,8.91c-1.62,2.01-3.77,3.13-6.27,3.56c-2.81,0.49-5.57,0.25-8.19-0.95
			c-2.83-1.29-4.57-3.51-5.31-6.52c-0.05-0.2-0.03-0.31,0.2-0.39c1.79-0.63,3.58-1.28,5.37-1.93
			C7.89,314.79,7.94,314.79,7.96,314.78z"/>
		<path d="M-15.49,311.9c-2.25-0.93-4.42-1.94-5.57-4.21c-1.43-2.82-1-6.33,1.87-8.65c2.59-2.09,5.59-2.81,8.86-2.5
			c3.14,0.3,5.69,1.67,7.47,4.31c0.35,0.51,0.61,1.08,0.95,1.67c-1.89,0.93-3.72,1.82-5.6,2.74c-0.08-0.17-0.15-0.32-0.22-0.47
			c-1.12-2.31-3.68-3.3-6.03-2.27c-0.44,0.19-0.86,0.5-1.17,0.87c-0.66,0.77-0.51,1.69,0.33,2.25c0.5,0.33,1.07,0.56,1.65,0.85
			C-13.79,308.28-14.63,310.07-15.49,311.9z"/>
		<path d="M23.31,302.56c-1.85,0.91-3.69,1.81-5.5,2.69c-0.34-0.53-0.63-1.08-1.01-1.55c-1.34-1.65-4.04-2.06-5.83-0.91
			c-0.24,0.16-0.47,0.35-0.65,0.57c-0.65,0.81-0.53,1.73,0.34,2.29c0.49,0.32,1.05,0.55,1.63,0.84c-0.83,1.76-1.67,3.55-2.54,5.4
			c-0.51-0.22-1-0.42-1.48-0.65c-1.36-0.65-2.62-1.46-3.55-2.68c-1.73-2.26-1.93-6.18,0.52-8.76c1.64-1.73,3.69-2.71,6.01-3.12
			c2.86-0.51,5.63-0.22,8.17,1.3C21.22,299.06,22.48,300.6,23.31,302.56z"/>
		<path d="M98.8,297.34c0,1.93,0,3.81,0,5.73c-6.78,0-13.54,0-20.33,0c0-1.91,0-3.8,0-5.73C85.24,297.34,92,297.34,98.8,297.34z"/>
		<path d="M142.75,315.32c-5.76-0.78-8.75-4.62-8.68-9.51c0.07-5.42,3.82-8.7,8.7-9.24c0.01,0.14,0.02,0.28,0.02,0.41
			c0,1.7-0.01,3.41,0.01,5.11c0,0.28-0.08,0.44-0.33,0.59c-2.67,1.59-2.66,4.92-0.01,6.54c0.15,0.09,0.32,0.29,0.32,0.44
			c0.02,1.83,0.01,3.67,0.01,5.5C142.78,315.21,142.77,315.25,142.75,315.32z"/>
		<path d="M-27.52,297.34c0,1.9,0,3.79,0,5.71c-6.34,0-12.67,0-19.04,0c0-1.89,0-3.79,0-5.71
			C-40.22,297.34-33.89,297.34-27.52,297.34z"/>
		<path d="M29.35,303.05c0-1.91,0-3.79,0-5.71c6.36,0,12.69,0,19.06,0c0,1.9,0,3.79,0,5.71C42.07,303.05,35.74,303.05,29.35,303.05z
			"/>
		<path d="M85.56,308.3c2.07,0,4.1,0,6.16,0c0,5.23,0,10.43,0,15.66c-2.04,0-4.08,0-6.16,0C85.56,318.76,85.56,313.55,85.56,308.3z"
			/>
		<path d="M118.5,324.55c-3.63-0.42-6.51-2.06-8.5-5.24c1.51-1.12,3-2.23,4.52-3.36c0.71,0.96,1.6,1.69,2.65,2.23
			c0.36,0.19,0.75,0.31,1.11,0.49c0.12,0.06,0.27,0.2,0.28,0.3c0.01,1.82,0.01,3.64,0,5.45
			C118.57,324.45,118.54,324.48,118.5,324.55z"/>
		<path d="M114.4,305.07c-1.4-1.14-2.78-2.25-4.18-3.39c1.94-2.9,4.64-4.5,8.09-4.92c0.02,0.12,0.04,0.23,0.04,0.34
			c0,1.64,0,3.29,0,4.93c0,0.22-0.02,0.38-0.28,0.45c-1.45,0.4-2.6,1.25-3.52,2.43C114.52,304.95,114.47,304.99,114.4,305.07z"/>
	</g>
	<g>
		<path d="M368.44,308.85c1.5,1.37,2.87,2.63,4.27,3.9c-0.19,0.23-0.29,0.37-0.41,0.49c-0.94,0.94-1.29,2.02-0.78,3.29
			c0.53,1.3,1.59,1.89,2.92,1.99c2.51,0.18,4.41-0.94,5.98-2.88c-0.18-0.2-0.32-0.38-0.48-0.55c-1.88-1.95-3.77-3.91-5.66-5.86
			c-1.38-1.43-2.33-3.07-2.44-5.09c-0.19-3.28,1.88-6.06,5.22-6.96c3.63-0.97,6.7,0.18,9.42,2.73c-1.17,1.58-2.31,3.14-3.47,4.71
			c-0.55-0.48-1.04-0.94-1.57-1.35c-0.64-0.5-1.37-0.76-2.2-0.66c-1.16,0.14-1.65,1.15-0.95,2.09c0.41,0.54,0.9,1.02,1.36,1.51
			c1.77,1.85,3.54,3.7,5.41,5.66c0-1.49,0-2.84,0-4.25c2.34,0,4.6,0,6.9,0c0,1.75,0,3.46,0,5.25c-1.93,0-3.84,0-5.94,0
			c2.55,2.65,4.98,5.18,7.46,7.76c-1.49,1.33-2.94,2.62-4.43,3.95c-1.58-1.64-3.14-3.26-4.72-4.9c-0.75,0.68-1.44,1.37-2.2,1.99
			c-2.34,1.88-4.96,2.99-8.02,2.91c-4.51-0.11-8.16-3.28-8.83-7.74c-0.28-1.87,0.04-3.68,1.08-5.29
			C367.01,310.55,367.8,309.67,368.44,308.85z"/>
		<path d="M408.58,313.09c0-5.37,0-10.65,0-15.98c0.28,0,0.52,0,0.76,0c3.77,0,7.53-0.03,11.3,0.02c2.09,0.03,4.01,0.63,5.6,2.06
			c2.64,2.36,3.31,6.69,1.44,9.44c-0.3,0.45-0.69,0.84-1.06,1.3c1.03,0.67,1.92,1.5,2.48,2.61c1.93,3.82-0.15,9-4.32,10.57
			c-1.01,0.38-2.11,0.68-3.18,0.72c-2.75,0.1-5.51,0.03-8.32,0.03c0-1.89,0-3.78,0-5.76c0.29,0,0.57,0,0.85,0
			c2.34-0.04,4.69,0.02,7.02-0.15c1.72-0.13,2.69-1.72,2.14-3.19c-0.41-1.1-1.34-1.51-2.41-1.63c-0.45-0.05-0.92-0.05-1.38-0.05
			c-3.37,0-6.74,0-10.12,0C409.13,313.09,408.87,313.09,408.58,313.09z M414.81,307.36c1.42,0,2.79,0,4.17,0
			c0.31,0,0.62,0,0.92-0.04c0.39-0.06,0.78-0.13,1.15-0.26c0.87-0.31,1.33-0.99,1.35-1.9c0.02-0.93-0.43-1.66-1.33-1.98
			c-0.47-0.17-0.98-0.27-1.47-0.29c-1.59-0.04-3.18-0.01-4.79-0.01C414.81,304.37,414.81,305.81,414.81,307.36z"/>
		<path d="M522.02,313.94c0,3.36,0,6.64,0,9.94c-2.1,0-4.13,0-6.21,0c0-5.21,0-10.43,0-15.73c0.23,0,0.46,0,0.69,0
			c3.53,0,7.05,0,10.58,0c0.91,0,1.75-0.2,2.38-0.9c1.32-1.43,0.61-3.74-1.3-4.21c-0.44-0.11-0.91-0.13-1.37-0.14
			c-3.42-0.01-6.83-0.01-10.25-0.01c-0.24,0-0.48,0-0.76,0c0-1.94,0-3.84,0-5.72c0.07-0.03,0.11-0.06,0.15-0.06
			c4.05,0,8.11-0.15,12.15,0.05c3.65,0.18,6.49,1.91,7.87,5.47c1.31,3.39,0.39,8.02-3.81,10.12c-0.15,0.08-0.29,0.17-0.49,0.29
			c2.76,3.6,5.49,7.17,8.31,10.86c-0.74,0-1.34,0-1.94,0c-1.69,0-3.37-0.01-5.06,0.01c-0.39,0-0.63-0.11-0.87-0.43
			c-2.33-3.04-4.68-6.06-7.01-9.1c-0.25-0.33-0.5-0.49-0.92-0.46C523.48,313.96,522.8,313.94,522.02,313.94z"/>
		<path d="M448.35,311.81c-0.68-1.69-1.31-3.26-1.95-4.83c-0.26-0.64-0.41-1.5-0.89-1.84c-0.46-0.32-1.31-0.1-1.99-0.11
			c-1.09-0.01-2.19-0.01-3.28-0.01c-0.04,0-0.08-0.02-0.23-0.05c1.06-2.62,2.12-5.23,3.19-7.86c1.87,0,3.71-0.02,5.54,0.03
			c0.2,0,0.47,0.32,0.57,0.55c1.45,3.51,2.88,7.03,4.31,10.55c2.03,4.99,4.07,9.99,6.1,14.98c0.08,0.2,0.16,0.4,0.27,0.69
			c-0.32,0-0.57,0-0.82,0c-1.77,0-3.55-0.01-5.32,0.01c-0.45,0.01-0.69-0.11-0.86-0.56c-0.68-1.75-1.42-3.48-2.11-5.22
			c-0.16-0.41-0.36-0.55-0.81-0.55c-2.63,0.03-5.25,0.03-7.88,0c-0.48-0.01-0.68,0.17-0.84,0.59c-0.74,1.91-1.52,3.81-2.28,5.71
			c-2.25,0-4.45,0-6.72,0c0.07-0.21,0.11-0.4,0.18-0.57c1.48-3.66,2.98-7.32,4.45-10.99c0.17-0.43,0.39-0.53,0.82-0.53
			c3.24,0.02,6.48,0.01,9.72,0.01C447.74,311.81,447.98,311.81,448.35,311.81z"/>
		<path d="M323.83,307.52c0,1.94,0,3.79,0,5.73c-3.77,0-7.52,0-11.32,0c0,1.64,0,3.2,0,4.85c4.28,0,8.55,0,12.87,0
			c0,1.95,0,3.83,0,5.76c-6.36,0-12.74,0-19.16,0c0-5.44,0-10.88,0-16.34C312.1,307.52,317.94,307.52,323.83,307.52z"/>
		<path d="M331.32,323.85c0-5.43,0-10.87,0-16.34c5.87,0,11.71,0,17.58,0c0,1.9,0,3.78,0,5.73c-3.74,0-7.49,0-11.3,0
			c0,1.64,0,3.2,0,4.85c4.27,0,8.55,0,12.86,0c0,1.95,0,3.83,0,5.76C344.11,323.85,337.74,323.85,331.32,323.85z"/>
		<path d="M490.7,307.51c5.87,0,11.69,0,17.56,0c0,1.91,0,3.8,0,5.77c-3.76,0-7.51,0-11.3,0c0,1.64,0,3.21,0,4.83
			c4.29,0,8.55,0,12.87,0c0,1.94,0,3.83,0,5.77c-6.36,0-12.72,0-19.13,0C490.7,318.44,490.7,313,490.7,307.51z"/>
		<path d="M240.97,324.41c0-2.01-0.01-3.98,0.02-5.94c0-0.15,0.22-0.35,0.38-0.42c3.29-1.41,4.95-3.96,4.97-7.48
			c0.02-3.58-1.65-6.16-4.99-7.59c-0.15-0.06-0.36-0.25-0.36-0.37c-0.02-1.99-0.02-3.97-0.02-5.97c6.01,0.82,11.67,6.03,11.92,13.37
			C253.14,317.19,248.12,323.25,240.97,324.41z"/>
		<path d="M236.15,296.62c0,2.02,0.01,3.99-0.02,5.95c0,0.14-0.23,0.35-0.39,0.42c-3.3,1.42-4.88,4-4.97,7.5
			c-0.09,3.36,1.85,6.2,4.93,7.53c0.19,0.08,0.43,0.34,0.43,0.52c0.03,1.88,0.01,3.76,0.01,5.65c0,0.06-0.04,0.12-0.06,0.18
			c-6.08-0.84-11.37-6.09-11.8-12.86C223.76,303.51,229.62,297.59,236.15,296.62z"/>
		<path d="M538.37,297.11c2.33,0,4.54-0.01,6.75,0.02c0.21,0,0.5,0.18,0.6,0.36c3.04,5.23,6.07,10.48,9.09,15.72
			c0.09,0.16,0.15,0.37,0.15,0.55c0.01,3.35,0.01,6.7,0.01,10.1c-2.06,0-4.1,0-6.22,0c0-0.24,0-0.48,0-0.71
			c0-2.5,0.02-4.99-0.02-7.49c-0.01-0.41-0.13-0.87-0.33-1.22c-3.2-5.55-6.42-11.08-9.64-16.62
			C538.65,297.62,538.54,297.41,538.37,297.11z"/>
		<path d="M275.75,307.52c0,1.93,0,3.79,0,5.73c-3.76,0-7.51,0-11.35,0c0,3.58,0,7.09,0,10.63c-2.13,0-4.18,0-6.26,0
			c0-5.47,0-10.9,0-16.36C264.02,307.52,269.85,307.52,275.75,307.52z"/>
		<path d="M288.45,323.88c-2.14,0-4.17,0-6.25,0c0-5.44,0-10.88,0-16.35c5.84,0,11.67,0,17.56,0c0,1.88,0,3.77,0,5.73
			c-3.74,0-7.49,0-11.31,0C288.45,316.83,288.45,320.32,288.45,323.88z"/>
		<path d="M462.84,323.87c0-8.92,0-17.82,0-26.74c2.07,0,4.1,0,6.18,0c0,8.91,0,17.81,0,26.74
			C466.97,323.87,464.92,323.87,462.84,323.87z"/>
		<path d="M197.89,313.39c1.89,0,3.77,0.03,5.64-0.02c0.71-0.02,1.09,0.15,1.43,0.85c2.19,4.53,7.51,5.69,11.73,2.61
			c0.42-0.31,0.83-0.63,1.28-0.98c1.28,1.59,2.54,3.15,3.8,4.7c-2.82,3.13-8.76,5.03-14.28,3.5
			C201.53,322.4,198.43,317.41,197.89,313.39z"/>
		<path d="M221.79,300.49c-1.26,1.56-2.52,3.12-3.81,4.72c-0.41-0.32-0.79-0.61-1.16-0.9c-2.85-2.15-6.57-2.38-9.25-0.58
			c-1.27,0.85-2.17,2.02-2.77,3.42c-0.17,0.41-0.4,0.54-0.83,0.54c-2.01-0.02-4.02-0.01-6.03-0.01c0.53-3.82,3.75-8.57,9.07-10.45
			C212.46,295.3,218.76,297.23,221.79,300.49z"/>
		<path d="M277.29,302.88c-6.39,0-12.73,0-19.13,0c0-1.91,0-3.8,0-5.73c6.36,0,12.72,0,19.13,0
			C277.29,299.03,277.29,300.92,277.29,302.88z"/>
		<path d="M301.36,297.14c0,1.94,0,3.79,0,5.7c-6.39,0-12.77,0-19.18,0c0-1.9,0-3.79,0-5.7
			C288.58,297.14,294.94,297.14,301.36,297.14z"/>
		<path d="M325.37,302.88c-6.39,0-12.74,0-19.13,0c0-1.91,0-3.8,0-5.73c6.37,0,12.72,0,19.13,0
			C325.37,299.03,325.37,300.92,325.37,302.88z"/>
		<path d="M350.47,302.88c-6.39,0-12.73,0-19.13,0c0-1.91,0-3.8,0-5.73c6.36,0,12.72,0,19.13,0
			C350.47,299.03,350.47,300.92,350.47,302.88z"/>
		<path d="M490.69,302.84c0-1.89,0-3.78,0-5.7c6.4,0,12.76,0,19.16,0c0,1.9,0,3.77,0,5.7C503.48,302.84,497.1,302.84,490.69,302.84z
			"/>
		<path d="M487.73,323.91c-2.56,0-4.99,0.01-7.42-0.01c-0.19,0-0.43-0.11-0.55-0.25c-2.82-3.35-5.62-6.71-8.43-10.07
			c-0.02-0.03-0.01-0.08-0.03-0.21c0.46,0,0.91,0,1.35,0c1.93,0,3.85-0.01,5.78,0.01c0.27,0,0.62,0.11,0.79,0.31
			c2.77,3.27,5.52,6.57,8.26,9.86C487.55,323.64,487.6,323.73,487.73,323.91z"/>
		<path d="M486.89,297.11c-1.45,1.84-2.8,3.55-4.15,5.26c-1.29,1.63-2.57,3.26-3.87,4.88c-0.14,0.18-0.41,0.37-0.62,0.37
			c-2.25,0.03-4.51,0.01-6.76,0.01c-0.06,0-0.11-0.03-0.26-0.08c0.74-0.94,1.44-1.84,2.16-2.74c1.93-2.44,3.85-4.87,5.79-7.3
			c0.14-0.18,0.4-0.38,0.6-0.39C482.09,297.1,484.4,297.11,486.89,297.11z"/>
		<path d="M552.59,306.84c0.15-0.27,0.23-0.44,0.33-0.61c1.65-2.88,3.31-5.75,4.94-8.64c0.21-0.37,0.43-0.51,0.87-0.5
			c2.01,0.03,4.02,0.01,6.03,0.01c0.17,0,0.34,0,0.58,0c-0.13,0.25-0.21,0.42-0.3,0.58c-1.68,2.89-3.37,5.76-5.04,8.66
			c-0.21,0.37-0.44,0.51-0.87,0.51C557,306.83,554.86,306.84,552.59,306.84z"/>
	</g>
	<g>
		<path class="st8" d="M-111.82,250.32v-0.88c0-1.98,1.77-3.01,3.93-3.01c2.17,0,3.93,1.04,3.93,3.01v0.88c0,2-1.75,3-3.93,3
			C-110.05,253.32-111.82,252.32-111.82,250.32z M-111.07,260.06v-3.28h10.74v-1.5h-10.74v-0.88h11.64v3.22h-10.74v1.58h11.02v0.87
			H-111.07z M-104.86,250.28v-0.78c0-1.42-1.29-2.19-3.02-2.19c-1.74,0-3.04,0.76-3.04,2.19v0.78c0,1.42,1.31,2.17,3.04,2.17
			C-106.15,252.45-104.86,251.7-104.86,250.28z M-100.33,253.62v-7.17h0.9v7.17H-100.33z"/>
		<path class="st8" d="M-96.82,254.04v-7.33h0.9v2.59h5.5v-2.59h0.9v7.33H-96.82z M-96.07,260.06v-4.66h0.9v3.79h10.47v0.87H-96.07z
			 M-95.92,253.17h5.5v-3h-5.5V253.17z M-85.9,256.38v-9.93h0.9v4.02h2.04v0.88H-85v5.02H-85.9z"/>
		<path class="st8" d="M-76.44,259.22h5.41v0.75h-6.25v-13.48h0.84V259.22z"/>
		<path class="st8" d="M-69.72,249.05c0-1.86,1.58-2.87,3.66-2.87c2.07,0,3.66,1,3.66,2.87v8.35c0,1.86-1.59,2.86-3.66,2.86
			c-2.08,0-3.66-1-3.66-2.86V249.05z M-68.86,257.37c0,1.32,1.16,2.14,2.81,2.14s2.8-0.82,2.8-2.14v-8.29c0-1.32-1.15-2.14-2.8-2.14
			s-2.81,0.83-2.81,2.14V257.37z"/>
		<path class="st8" d="M-56.16,253.92v-0.72h3.1v4.2c0,1.86-1.54,2.86-3.61,2.86c-2.08,0-3.63-1-3.63-2.86v-8.35
			c0-1.86,1.53-2.87,3.62-2.87c2.07,0,3.61,1,3.61,2.87v1.23h-0.84v-1.2c0-1.32-1.12-2.14-2.77-2.14c-1.65,0-2.76,0.83-2.76,2.14
			v8.29c0,1.32,1.11,2.14,2.77,2.14c1.65,0,2.77-0.82,2.77-2.14v-3.45H-56.16z"/>
		<path class="st8" d="M-51.29,249.05c0-1.86,1.58-2.87,3.66-2.87c2.07,0,3.66,1,3.66,2.87v8.35c0,1.86-1.59,2.86-3.66,2.86
			c-2.08,0-3.66-1-3.66-2.86V249.05z M-50.43,257.37c0,1.32,1.16,2.14,2.81,2.14s2.8-0.82,2.8-2.14v-8.29c0-1.32-1.15-2.14-2.8-2.14
			s-2.81,0.83-2.81,2.14V257.37z"/>
		<path class="st8" d="M-37.58,258.21c1.62-0.93,4.27-3.45,4.27-6.79v-4.56h0.9v4.56c0,3.35,2.65,5.87,4.27,6.79v1.11
			c-1.88-0.95-4.23-3.3-4.72-5.71c-0.5,2.42-2.85,4.77-4.73,5.71V258.21z M-25.8,260.06v-13.6h0.9v13.6H-25.8z"/>
		<path class="st8" d="M-22.28,251.19v-1.54c0-2.12,1.69-3.22,3.76-3.22s3.76,1.11,3.76,3.22v1.54c0,2.13-1.69,3.22-3.76,3.22
			S-22.28,253.32-22.28,251.19z M-21.41,260.06v-4.51h0.9v3.65h10.47v0.87H-21.41z M-15.65,251.15v-1.44c0-1.56-1.23-2.4-2.85-2.4
			c-1.65,0-2.88,0.84-2.88,2.4v1.44c0,1.56,1.23,2.38,2.88,2.38C-16.88,253.53-15.65,252.71-15.65,251.15z M-11.24,256.26v-9.81h0.9
			v4h2.04v0.89h-2.04v4.92H-11.24z"/>
	</g>
	<g>
		<path class="st8" d="M-111.82-32.03v-0.88c0-1.98,1.77-3.01,3.93-3.01c2.17,0,3.93,1.04,3.93,3.01v0.88c0,2-1.75,3-3.93,3
			C-110.05-29.03-111.82-30.03-111.82-32.03z M-111.07-22.29v-3.28h10.74v-1.5h-10.74v-0.88h11.64v3.22h-10.74v1.58h11.02v0.87
			H-111.07z M-104.86-32.07v-0.78c0-1.42-1.29-2.19-3.02-2.19c-1.74,0-3.04,0.76-3.04,2.19v0.78c0,1.42,1.31,2.17,3.04,2.17
			C-106.15-29.9-104.86-30.65-104.86-32.07z M-100.33-28.73v-7.17h0.9v7.17H-100.33z"/>
		<path class="st8" d="M-96.82-28.31v-7.33h0.9v2.59h5.5v-2.59h0.9v7.33H-96.82z M-96.07-22.29v-4.66h0.9v3.79h10.47v0.87H-96.07z
			 M-95.92-29.18h5.5v-3h-5.5V-29.18z M-85.9-25.97v-9.93h0.9v4.02h2.04v0.88H-85v5.02H-85.9z"/>
		<path class="st8" d="M-77.4-34.35v-0.87h6.19v0.69c0,7.18-2.37,10.6-6.27,11.71v-0.93c2.49-0.79,4.08-2.69,4.84-5.64h-4.54v-0.87
			h4.74c0.22-1.22,0.34-2.58,0.33-4.1H-77.4z M-65.68-35.9h0.9v13.6h-0.9v-6.85h-2.7v6.85h-0.9v-13.6h0.9v5.87h2.7V-35.9z"/>
		<path class="st8" d="M-62.2-28.02v-4.41h6.38v-2.25h-6.38v-0.89h7.27v4.02h-6.38v2.56l7.56-0.54v0.88L-62.2-28.02z M-50.83-22.14
			v-3.64H-61.6v-0.87h11.67v4.51H-50.83z M-50.83-27.44v-8.46h0.9v8.46H-50.83z"/>
		<path class="st8" d="M-47.21-34.35v-0.87h7.39v0.87H-47.21z M-47.21-22.97v-8.67h7.21v0.88h-6.31v6.81l7.51-0.69v0.87
			L-47.21-22.97z M-35.85-22.29v-5.43h-4.36v-0.87h4.36v-7.3h0.9v13.6H-35.85z"/>
		<path class="st8" d="M-28.25-24.14c1.62-0.93,4.27-3.45,4.27-6.79v-4.56h0.9v4.56c0,3.35,2.65,5.87,4.27,6.79v1.11
			c-1.88-0.95-4.23-3.3-4.72-5.71c-0.5,2.42-2.85,4.77-4.73,5.71V-24.14z M-16.47-22.29v-13.6h0.9v13.6H-16.47z"/>
		<path class="st8" d="M-12.95-31.16v-1.54c0-2.12,1.69-3.22,3.76-3.22s3.76,1.11,3.76,3.22v1.54c0,2.13-1.69,3.22-3.76,3.22
			S-12.95-29.03-12.95-31.16z M-12.08-22.29v-4.51h0.9v3.65h10.47v0.87H-12.08z M-6.32-31.2v-1.44c0-1.56-1.23-2.4-2.85-2.4
			c-1.65,0-2.88,0.84-2.88,2.4v1.44c0,1.56,1.23,2.38,2.88,2.38C-7.55-28.82-6.32-29.64-6.32-31.2z M-1.91-26.09v-9.81h0.9v4h2.04
			v0.89h-2.04v4.92H-1.91z"/>
	</g>
	<g>
		<path class="st8" d="M299.17-34.35v-0.87h7.92v0.87H299.17z M299.17-22.97v-8.62h7.84v0.87h-6.95v6.78l7.56-0.69v0.87
			L299.17-22.97z M310.52-22.29v-13.6h0.9v13.6H310.52z"/>
		<path class="st8" d="M314.05-28.67v-6.97h0.9v2.41h4.38v-2.41h0.9v6.97H314.05z M314.53-26.07v-0.88h12.06v4.81h-0.9v-3.93H314.53
			z M314.95-29.54h4.38v-2.82h-4.38V-29.54z M322.22-27.72v-8.17h0.9v3.3h2.56v-3.3h0.9v8.17h-0.9v-3.99h-2.56v3.99H322.22z"/>
		<path class="st8" d="M333.47-34.35v-0.87h6.2v0.69c0,7.18-2.37,10.6-6.27,11.71v-0.93c2.49-0.79,4.08-2.69,4.84-5.64h-4.54v-0.87
			h4.74c0.22-1.22,0.34-2.58,0.33-4.1H333.47z M345.19-35.9h0.9v13.6h-0.9v-6.85h-2.7v6.85h-0.9v-13.6h0.9v5.87h2.7V-35.9z"/>
		<path class="st8" d="M348.66-28.02v-4.41h6.38v-2.25h-6.38v-0.89h7.28v4.02h-6.38v2.56l7.56-0.54v0.88L348.66-28.02z
			 M360.03-22.14v-3.64h-10.77v-0.87h11.67v4.51H360.03z M360.03-27.44v-8.46h0.9v8.46H360.03z"/>
		<path class="st8" d="M363.66-34.35v-0.87h7.39v0.87H363.66z M363.66-22.97v-8.67h7.21v0.88h-6.31v6.81l7.51-0.69v0.87
			L363.66-22.97z M375.02-22.29v-5.43h-4.36v-0.87h4.36v-7.3h0.9v13.6H375.02z"/>
		<path class="st8" d="M382.62-24.14c1.62-0.93,4.28-3.45,4.28-6.79v-4.56h0.9v4.56c0,3.35,2.66,5.87,4.28,6.79v1.11
			c-1.88-0.95-4.23-3.3-4.72-5.71c-0.5,2.42-2.85,4.77-4.73,5.71V-24.14z M394.4-22.29v-13.6h0.9v13.6H394.4z"/>
		<path class="st8" d="M397.92-31.16v-1.54c0-2.12,1.69-3.22,3.76-3.22c2.07,0,3.76,1.11,3.76,3.22v1.54c0,2.13-1.7,3.22-3.76,3.22
			C399.62-27.93,397.92-29.03,397.92-31.16z M398.79-22.29v-4.51h0.9v3.65h10.47v0.87H398.79z M404.55-31.2v-1.44
			c0-1.56-1.23-2.4-2.85-2.4c-1.65,0-2.88,0.84-2.88,2.4v1.44c0,1.56,1.23,2.38,2.88,2.38C403.32-28.82,404.55-29.64,404.55-31.2z
			 M408.96-26.09v-9.81h0.9v4h2.04v0.89h-2.04v4.92H408.96z"/>
	</g>
	<g>
		<path class="st8" d="M-111.89,382.95c3.91-0.21,6.54-1.92,6.54-5.7h-6.46v-0.89h7.38v0.63c0,4.7-3.17,6.63-7.45,6.84V382.95z
			 M-111.07,389.64v-4.66h0.9v3.79h10.23v0.87H-111.07z M-101.14,385.99v-9.96h0.9v4.05h2.28v0.87h-2.28v5.04H-101.14z"/>
		<path class="st8" d="M-97.21,383.71v-0.88h2.34l-0.63-5.1h0.91l0.62,5.1h2.5l0.63-5.1h0.9l-0.65,5.1h2.49v0.88H-97.21z
			 M-97.06,377.25v-0.89h8.82v0.89H-97.06z M-96.07,389.64v-4.36h0.9v3.5h10.47v0.87H-96.07z M-85.9,386.14v-10.11h0.9v4.02h2.04
			v0.88H-85v5.21H-85.9z"/>
		<path class="st8" d="M-76.44,388.8h5.41v0.75h-6.25v-13.48h0.84V388.8z"/>
		<path class="st8" d="M-69.72,378.63c0-1.86,1.58-2.87,3.66-2.87c2.07,0,3.66,1,3.66,2.87v8.35c0,1.86-1.59,2.86-3.66,2.86
			c-2.08,0-3.66-1-3.66-2.86V378.63z M-68.86,386.95c0,1.32,1.16,2.14,2.81,2.14s2.8-0.82,2.8-2.14v-8.29c0-1.32-1.15-2.14-2.8-2.14
			s-2.81,0.83-2.81,2.14V386.95z"/>
		<path class="st8" d="M-56.16,383.5v-0.72h3.1v4.2c0,1.86-1.54,2.86-3.61,2.86c-2.08,0-3.63-1-3.63-2.86v-8.35
			c0-1.86,1.53-2.87,3.62-2.87c2.07,0,3.61,1,3.61,2.87v1.23h-0.84v-1.2c0-1.32-1.12-2.14-2.77-2.14c-1.65,0-2.76,0.83-2.76,2.14
			v8.29c0,1.32,1.11,2.14,2.77,2.14c1.65,0,2.77-0.82,2.77-2.14v-3.45H-56.16z"/>
		<path class="st8" d="M-51.29,378.63c0-1.86,1.58-2.87,3.66-2.87c2.07,0,3.66,1,3.66,2.87v8.35c0,1.86-1.59,2.86-3.66,2.86
			c-2.08,0-3.66-1-3.66-2.86V378.63z M-50.43,386.95c0,1.32,1.16,2.14,2.81,2.14s2.8-0.82,2.8-2.14v-8.29c0-1.32-1.15-2.14-2.8-2.14
			s-2.81,0.83-2.81,2.14V386.95z"/>
		<path class="st8" d="M-37.58,387.79c1.62-0.93,4.27-3.45,4.27-6.79v-4.56h0.9V381c0,3.35,2.65,5.87,4.27,6.79v1.11
			c-1.88-0.95-4.23-3.3-4.72-5.71c-0.5,2.42-2.85,4.77-4.73,5.71V387.79z M-25.8,389.64v-13.6h0.9v13.6H-25.8z"/>
		<path class="st8" d="M-22.28,380.77v-1.54c0-2.12,1.69-3.22,3.76-3.22s3.76,1.11,3.76,3.22v1.54c0,2.13-1.69,3.22-3.76,3.22
			S-22.28,382.9-22.28,380.77z M-21.41,389.64v-4.51h0.9v3.65h10.47v0.87H-21.41z M-15.65,380.73v-1.44c0-1.56-1.23-2.4-2.85-2.4
			c-1.65,0-2.88,0.84-2.88,2.4v1.44c0,1.56,1.23,2.38,2.88,2.38C-16.88,383.11-15.65,382.29-15.65,380.73z M-11.24,385.84v-9.81h0.9
			v4h2.04v0.89h-2.04v4.92H-11.24z"/>
	</g>
</g>
</svg>
